<svg xmlns="http://www.w3.org/2000/svg" viewBox="0 0 129.31 121.29"><defs><style>.cls-1{fill:#e6f5fb;}.cls-2{fill:#fbf3f3;}.cls-3{fill:#5699c0;}.cls-4{fill:#375a7a;}.cls-5{fill:#1f3751;}.cls-6{fill:#91c5e0;}.cls-7{fill:#79afd5;}.cls-8{fill:#f2dddf;}.cls-9{fill:#bae5fa;}.cls-10{fill:#efd2d6;}.cls-11{fill:#99cced;}.cls-12{fill:#fffdfd;}.cls-13{fill:#e7c1c5;}.cls-14{fill:#46779a;}.cls-15{fill:#6ea4d2;}.cls-16{fill:#e9c6c7;}.cls-17{fill:#fff;}.cls-18{fill:#d1edfa;}</style></defs><g id="Layer_2" data-name="Layer 2"><g id="PRINT_2" data-name="PRINT 2"><g id="bunga_atas" data-name="bunga atas"><path class="cls-1" d="M111.46,46.84c-.16-8-5.73-16.58-13.66-18.11-15.33-3-36.46,3.21-51,5.88-3.72.68-7.9,4.1-8.58,7.64a6.89,6.89,0,0,0,1.52,5.82c17.69,20.69,16,40.56,27.67,42.81,17,3.3,40.05-22.86,43.26-39.41C110.93,50,111.15,48.42,111.46,46.84Z"/><path class="cls-2" d="M75.76,35.19a5.66,5.66,0,0,0-.71-1.65,1.49,1.49,0,0,0-1.32-.15,2.86,2.86,0,0,0-1.36.85,6.65,6.65,0,0,0-.92,1.4A3.55,3.55,0,0,1,74,36a3.84,3.84,0,0,1,.83,1.39A4.87,4.87,0,0,0,75.76,35.19Z"/><path class="cls-3" d="M57.18,47.47c-.82-.75-1.24-.46-1.85-.8a1.5,1.5,0,0,1-.35-.26c-.92-.84-1.48-2.24-2.15-2.85,0,0-.3-.23-.59-.5a7,7,0,0,1-1.08-1.27,16.32,16.32,0,0,1-1.87,3.43c1.69.78,3.53,1.55,5.49,2.29l1.31.48,1.34-.27C57.35,47.64,57.27,47.55,57.18,47.47Z"/><path class="cls-2" d="M58.22,48.73v0h0Z"/><path class="cls-1" d="M43.23,38.11c-1.07-1-3.17-2.06-3.39-1.82a2.57,2.57,0,0,0-.39,1.06c.8,1.14,1.56,2.25,2.22,3.36a25.38,25.38,0,0,0,3.6,2.44A6.1,6.1,0,0,0,43.23,38.11Z"/><path class="cls-4" d="M56.17,6.23C48,2.34,45.9,4.05,39.38,6.56A54.46,54.46,0,0,0,56.17,6.23Z"/><path class="cls-1" d="M88.87,33.24a2.2,2.2,0,0,1,1.26-.6,1.63,1.63,0,0,1,0-.82c.05-.05,0-.16-.11-.26-1.17-1.06-3.35.82-4.21,1.77a16.57,16.57,0,0,0-2.06,3.24A23.93,23.93,0,0,1,85,39.73,23.91,23.91,0,0,0,88.87,33.24Z"/><path class="cls-5" d="M79.73,41.26a20.63,20.63,0,0,1-14.87,5.06c-1.06.15-2.09.33-3.11.52-1.46.28-2.88.59-4.32.88l.11.12c2-.94,11.28.91,19.75-2.67A21.34,21.34,0,0,0,79.73,41.26Z"/><path class="cls-2" d="M80.66,37.14c-.65-.58-2.48,1-3.87,1.56a16.2,16.2,0,0,0,.49,1.7,5.26,5.26,0,0,0,2.5-1.31,2.18,2.18,0,0,0,.21-.22C80.37,38.46,81.07,37.52,80.66,37.14Z"/><path class="cls-2" d="M71,37.78a3.55,3.55,0,0,1,.42,2.69l.28.18a12.32,12.32,0,0,0,2.21-2.1A2.88,2.88,0,0,0,71,37.78Z"/><path class="cls-2" d="M70.66,37.38a3.19,3.19,0,0,1,.33.4,2.88,2.88,0,0,1,2.91.77l0,0a11.74,11.74,0,0,0,.91-1.12A3.84,3.84,0,0,0,74,36a3.55,3.55,0,0,0-2.56-.37,3.29,3.29,0,0,0-1.7.57,2.53,2.53,0,0,0-.33.44,3.84,3.84,0,0,1,1.17.65Z"/><path class="cls-2" d="M76.79,38.7h0c-.32-1.17-.69-2.49-1-3.51a4.87,4.87,0,0,1-.92,2.21,11.74,11.74,0,0,1-.91,1.12l0,0a12.32,12.32,0,0,1-2.21,2.1l.2.12c.53.31,1-.89,1.5-.75a6.42,6.42,0,0,0,3.83.39h.06A16.2,16.2,0,0,1,76.79,38.7Z"/><path class="cls-2" d="M77.28,40.4Z"/><path class="cls-5" d="M64,36.79s0,0,0-.07a1.36,1.36,0,0,0,0-.18l-.24.25c-1.16,1.22-2.33,2.44-3.47,3.68a56.88,56.88,0,0,0-5,6.2c.61.34,1,0,1.85.8.09.08.17.17.25.25,1.44-.29,2.86-.6,4.32-.88C60.49,42.62,63.22,40.15,64,36.79Z"/><path class="cls-2" d="M64,36.72s0,.05,0,.07h0v-.06Z"/><path class="cls-3" d="M44.06,51.9c.07.94.2,1.93.27,2.85.93,1,2.07,2.42,3.45,4.11A19.47,19.47,0,0,1,44.06,51.9Z"/><path class="cls-6" d="M58.72,53.85l-1-.19a9.27,9.27,0,0,1-1.9-.53c-.29-.05-.18-.64-.47-.69-4.77-.93-8.06-4.34-10.49-8.27.81,3.57,2.13,7.18,3.06,10.64C49.69,60,59.42,70.13,64.38,71.09c7.33,1.42,12.33-5.5,15.86-10.51a12.26,12.26,0,0,1-6.73.71C67.09,60,62.87,54.65,58.72,53.85Z"/><path class="cls-3" d="M55.35,52.44c.29.05.18.64.47.69a9.27,9.27,0,0,0,1.9.53l1,.19c4.15.8,8.37,6.19,14.79,7.44a12.26,12.26,0,0,0,6.73-.71c.41-.6.81-1.16,1.18-1.68-6.59,1.54-14,.22-16-1.61-1.1-1-1.95-2.32-3-3.32-1.61-1.47-3.24-.29-5-1.14-1-.46-1.77-1.45-2.71-1.66a13.1,13.1,0,0,1-6.78-3.74,30.57,30.57,0,0,1-3-3.31l0,.05C47.29,48.1,50.58,51.51,55.35,52.44Z"/><path class="cls-3" d="M92.19,55.31l.22-.32c-.49.11-1,.2-1.49.29l-1.43,1C90.35,55.93,91.25,55.6,92.19,55.31Z"/><path class="cls-3" d="M89.49,56.29l1.43-1a9.42,9.42,0,0,0-3.61,1.17l-.1.06c0,.07-.09.14-.14.2s.09-.13.14-.2a18.08,18.08,0,0,1-5.79,2.39c-.37.52-.77,1.08-1.18,1.68C83.14,59.51,86,57.72,89.49,56.29Z"/><path class="cls-7" d="M80.24,60.58c-3.53,5-8.53,11.93-15.86,10.51-5-1-14.69-11.09-16.46-16.28-.93-3.46-2.25-7.07-3.06-10.64l-.1-.15a28.45,28.45,0,0,0-2.67-2.92l-.38-.34A14.28,14.28,0,0,1,44,50a12.75,12.75,0,0,0,0,1.94,19.47,19.47,0,0,0,3.72,7l1.11,1.35c2.89,3.4,6.74,7,10.94,11.41a9.25,9.25,0,0,0,5,2.95,9,9,0,0,0,6.86-1l1.36-1c4-3.3,7.42-9.79,16.42-16.31C86,57.72,83.14,59.51,80.24,60.58Z"/><path class="cls-8" d="M44.84,44.12l-.08-.1.1.15Z"/><path class="cls-9" d="M73.36,65.12a10.59,10.59,0,0,1-9.77,3.28C56.47,67,50.32,54.81,56,55.91c0,0,5.65,4.44,16.94,6.91a2.25,2.25,0,0,1,.87,1.7A1,1,0,0,1,73.36,65.12Z"/><path class="cls-9" d="M92.5,53.21c-1.34,2.23-2.37.85-4.62,2.38A20.19,20.19,0,0,1,73.71,58c-6-1.17-11.91-5.79-12-5.81-1.06-.21-2.2.15-3.27,0A55.3,55.3,0,0,1,47,46.59c.28.29.56.57.86.84a13.1,13.1,0,0,0,6.78,3.74c.94.21,1.67,1.2,2.71,1.66,1.8.85,3.43-.33,5,1.14,1.09,1,1.94,2.31,3,3.32,2.64,2.4,14.63,3.94,21.8-.78l.1-.06c1.41-.94,3.29-1.05,5.1-1.46.46-.68.87-1.34,1.24-2C93.27,53.08,92.89,53.15,92.5,53.21Z"/><path class="cls-6" d="M92.53,34.1a8.84,8.84,0,0,0-1.25-1c0-.16.11-.32.17-.47a3.92,3.92,0,0,0-1.32,0c.14.6.42,1.17,0,1.62s-.89.42-1.15.71-.09.4.11.59.42.3.59.46a8.28,8.28,0,0,1,0,2.34c2.45,2.27,4.52,5.2,3.83,8.8a12.73,12.73,0,0,1-4,6.41A35,35,0,0,0,93.65,53C98.44,44.59,96.66,37.86,92.53,34.1Z"/><path class="cls-5" d="M88.94,42.35a3.24,3.24,0,0,1-.4.72c-.17,2.1,1.14,6.54,0,10.58l.6,0a10,10,0,0,0,1.24-3.25A12,12,0,0,0,88.94,42.35Z"/><path class="cls-3" d="M93.56,47.16c.69-3.6-1.38-6.53-3.83-8.8a13.86,13.86,0,0,1-.79,4,12,12,0,0,1,1.45,8,10,10,0,0,1-1.24,3.25l.38,0A12.73,12.73,0,0,0,93.56,47.16Z"/><path class="cls-4" d="M88.54,43.07a1.71,1.71,0,0,1-.11.14A6.61,6.61,0,0,1,87,44.32a5.78,5.78,0,0,1,.13,2.8c-1,5.44-7.75,6.18-13.36,5.09a28.64,28.64,0,0,1-9.44-3.94c-2.05.16-4.09.35-6.13.44v0c9.51,3.18,21,5.47,30.33,4.92C89.68,49.61,88.37,45.17,88.54,43.07Z"/><path class="cls-3" d="M87.14,47.12a5.78,5.78,0,0,0-.13-2.8,27.18,27.18,0,0,1-7.3,2.49c-.37.41-.18,1.54-.62,2-.89,1-4.44-1.57-7.18.1-1.13.58-2.36-.94-3.61-.88s-2.64.12-4,.22a28.64,28.64,0,0,0,9.44,3.94C79.39,53.3,86.09,52.56,87.14,47.12Z"/><path class="cls-9" d="M69.89,78.05c.46-2.36,10.15-7.66,19.26-17.43,1.15-1.34,7.8-5.77,9.59-15,1-5.11-.22-10.22-5.5-13.42a1.1,1.1,0,0,1-.44-1.38,1.34,1.34,0,0,0-.56.35,4.89,4.89,0,0,0-.79,1.5c-.06.15-.12.31-.17.47a8.84,8.84,0,0,1,1.25,1c4.13,3.76,5.91,10.49,1.12,18.9-.37.65-.78,1.31-1.24,2a40.1,40.1,0,0,1-3.66,4.63c-4.2,4.6-15,12.85-24.22,18.87a1.12,1.12,0,0,0,.43.26c.17,0,.35,0,.5.06a6.52,6.52,0,0,0,3.18,1.79,14.66,14.66,0,0,0,2.33.25A2.87,2.87,0,0,1,69.89,78.05Z"/><path class="cls-7" d="M105.81,39.28a5.36,5.36,0,0,1-.61-.49c-1.56-1.41-2.42-3.56-3.75-4.93a3.19,3.19,0,0,0-.26-.26,10.88,10.88,0,0,0-2.07-1.23c2,1.63,3.28,4,5.34,6.46a4.44,4.44,0,0,1,.64,3.59c-.15.8-7.37,19.58-7.69,20.31s-2.06.75-3.31,1.27c-1.1.42-1.48,1.75-2.46,2.2C82.9,70.6,79.16,81.15,73.05,80c-1.88-.36-2.75-1.17-3.1-2.11a.89.89,0,0,0-.06.2A2.87,2.87,0,0,0,71,80.85H71c9.09.15,15.06-9.08,17.42-12.11.6-.77,1.82-1,3.07-1.27,0,0,0-.07,0-.1a20.57,20.57,0,0,0,4.78-3.21c.46-.5,1.56-.59,1.88-.94a.24.24,0,0,0,.06-.09c.4-1.84,3.55-8.54,5.76-14.41C105.72,44.24,106.87,40.25,105.81,39.28Z"/><path class="cls-10" d="M65.12,78.41l-.37.25h0Z"/><path class="cls-10" d="M64.47,78.86h0l.28-.21h0Z"/><path class="cls-10" d="M64.47,78.86l-.33.25.34-.24Z"/><path class="cls-4" d="M76.72,79.69A13.49,13.49,0,0,1,71,80.85a5.51,5.51,0,0,0,1.1.32c1.88.37,3.93,0,5.86-.19a5.66,5.66,0,0,1,.92,0,1.27,1.27,0,0,1,0-.27c1-.18,2-.36,3-.58A18.35,18.35,0,0,1,77,79.75Z"/><path class="cls-5" d="M90.53,67.68c-2.07,2.84-1.37,8.48-4.77,11.1a10.53,10.53,0,0,0,2.95-2.25c2.74-3,2.34-6.15,2.82-9.06C91.19,67.54,90.85,67.6,90.53,67.68Z"/><path class="cls-3" d="M89.35,68.07a2.52,2.52,0,0,0-.89.67c-1.63,2.09-5,7.15-9.91,10C86.08,79.57,84.56,72.94,89.35,68.07Z"/><path class="cls-4" d="M89.35,68.07c-4.79,4.87-3.27,11.5-10.8,10.69a17.46,17.46,0,0,1-1.83.93l.28.06a18.35,18.35,0,0,0,4.93.37,16.58,16.58,0,0,0,3.83-1.34c3.4-2.62,2.7-8.26,4.77-11.1A6.28,6.28,0,0,0,89.35,68.07Z"/><path class="cls-5" d="M79.31,81.76a1.32,1.32,0,0,1-.39-.79A5.66,5.66,0,0,0,78,81c-1.93.14-4,.56-5.86.19a5.51,5.51,0,0,1-1.1-.32,13.59,13.59,0,0,1-2.4-.25,6.09,6.09,0,0,1-2.4-1.11,8.78,8.78,0,0,0,5.16,3.05C73.53,83,76,82.17,79.31,81.76Z"/><path class="cls-4" d="M80.53,82.64a6.66,6.66,0,0,1-1.22-.88c-3.3.41-5.78,1.19-7.91.78a8.78,8.78,0,0,1-5.16-3.05,6.66,6.66,0,0,1-.78-.68c-.15,0-.33,0-.5-.06a.69.69,0,0,1-.2-.09l-.28.21c2.37,2.42,6.6,5.8,11.94,6.62a16.89,16.89,0,0,0,5.24-.58A6.78,6.78,0,0,1,80.53,82.64Z"/><path class="cls-4" d="M101.87,54.12c-1.48,3.53-2.88,6.73-3.41,8.36a15.12,15.12,0,0,0,3.21-6.24A12.82,12.82,0,0,0,101.87,54.12Z"/><path class="cls-4" d="M93.56,71.31c.16-.85.17-1.74.32-2.54.28-1.42,2-3.14,3.71-5.23a3.24,3.24,0,0,0-1.26.62,20.57,20.57,0,0,1-4.78,3.21c-.51,2.94-.07,6.12-2.84,9.16s-6.23,3.54-9.77,4.17a1.44,1.44,0,0,0,.75,1.4C86.09,80,93.12,73.59,93.56,71.31Z"/><path class="cls-3" d="M103.43,54.44a11,11,0,0,0,.08-4.35c-.53,1.34-1.09,2.71-1.64,4a12.82,12.82,0,0,1-.2,2.12,15.12,15.12,0,0,1-3.21,6.24,6.64,6.64,0,0,0-.19.65.24.24,0,0,1-.06.09,1.55,1.55,0,0,1-.62.32c-1.75,2.09-3.43,3.81-3.71,5.23-.15.8-.16,1.69-.32,2.54C93.12,73.59,86.09,80,79.69,82.1c.38.28.76.46.84.54a6.26,6.26,0,0,0,1.64,2.82c.47.43,1.38,1.18,2.17.88A4.6,4.6,0,0,1,85,86c-1-.76-1.63-1.3-1.35-2.71,1.08-5.57,11.91-7.63,12.52-10.76.17-.88-.34-2.64-.07-4C96.47,66.35,102.24,60.62,103.43,54.44Z"/><path class="cls-6" d="M111.4,49c-.21-.19-1-.33-1.19-.08l-.55.21c2.16.49,2.52,1.62,2.2,3.28-1.25,6.46-8.77,8.25-10.35,16.39-.31,1.63-.47,3.33-.8,5C99,82.47,92.65,83.17,86.85,85.43a12.11,12.11,0,0,1,2.25,0c2.7.2,5.68.57,9.24-3.34,4.24-4.65,1.65-6.66,3.54-9.07,2.29-2.93,2.75-6.32,4.28-9.54C108.17,58.84,116.53,53.7,111.4,49Z"/><path class="cls-9" d="M100.71,73.81c.33-1.66.49-3.36.8-5,1.58-8.14,9.1-9.93,10.35-16.39.32-1.66,0-2.79-2.2-3.28a8.48,8.48,0,0,1-5.63-.43c-.17.45-.34.91-.52,1.37a11,11,0,0,1-.08,4.35c-1.19,6.18-7,11.91-7.37,14-.27,1.41.24,3.17.07,4-.61,3.13-11.44,5.19-12.52,10.76C83.33,84.67,84,85.21,85,86a5.27,5.27,0,0,1,1-.38,5.71,5.71,0,0,1,.92-.16C92.65,83.17,99,82.47,100.71,73.81Z"/><path class="cls-7" d="M114.29,47.71c-.23-3.3-4.71-4.19-8.14-6.12a20.07,20.07,0,0,1-.68,2.95,18.53,18.53,0,0,1,1,2.68c.4,1.44,1.8,1.53,3,2a7.4,7.4,0,0,0,.7-.25c.22-.25,1-.11,1.19.08,2.87,2.62,1.52,5.39-.59,8.13-.38,1.36-.79,2.71-1.06,4.09-.66,3.41.1,4-.22,5.69-.67,3.45-4.8,4.9-5.7,7.09-2.28,9.22-8.42,10-9.08,13.37a3.42,3.42,0,0,0,0,1.19,12.92,12.92,0,0,0,7.12-.33c.15,0,.28-.12.43-.18a5.18,5.18,0,0,1-.49-3.79c2-10.45,11.52-11.09,12.27-15C114.06,69.3,114.34,48.66,114.29,47.71Z"/><path class="cls-5" d="M105.17,48a20,20,0,0,1,.32-3.39.14.14,0,0,1,0-.06c-.38,1.28-.88,2.71-1.44,4.18a11.51,11.51,0,0,0,3.6.75C106.55,49,105.24,49.3,105.17,48Z"/><path class="cls-4" d="M106.47,47.22a17.72,17.72,0,0,0-1-2.62,20,20,0,0,0-.32,3.39c.07,1.31,1.38,1,2.46,1.48a6,6,0,0,0,1.88-.28C108.27,48.75,106.87,48.66,106.47,47.22Z"/><path class="cls-3" d="M109.53,66.93c.32-1.65-.44-2.28.22-5.69.27-1.38.68-2.73,1.06-4.09-1.15,1.5-2.52,3-3.55,4.45-.31,2-.06,3.09-.37,4.69-.63,3.26-3.5,4-3.93,6.22,0,0-.09.72-.2,1.29a14,14,0,0,1-2.51,5.62,11.6,11.6,0,0,1-1.91,2.69,12.73,12.73,0,0,1-2.47,2.14c-1.23,1.18-2.48,2.36-3.65,3.61l0,0a25.76,25.76,0,0,0,2.54.68,3.42,3.42,0,0,1,0-1.19c.66-3.4,6.8-4.15,9.08-13.37C104.73,71.83,108.86,70.38,109.53,66.93Z"/><path class="cls-5" d="M103,72.51c.43-2.24,3.3-3,3.93-6.22.31-1.6.06-2.64.37-4.69a10.67,10.67,0,0,0-1.1,1.9c-1.53,3.22-2,6.61-4.28,9.54-1.48,1.89-.22,3.53-1.63,6.38a14,14,0,0,0,2.51-5.62C102.87,73.23,103,72.53,103,72.51Z"/><path class="cls-4" d="M95.87,84.25c-2.51,1.6-4.72,1.35-6.77,1.2.09.51.2,1,.31,1.47.92.35,1.85.68,2.78,1l0,0C93.39,86.61,94.64,85.43,95.87,84.25Z"/><path class="cls-6" d="M117.29,67.85a5.58,5.58,0,0,0,0-2.47c-1.84-6.28-.48-12.32-.52-19,0-5.07-13.09-5.37-11.64-12.9.21-1.07,4.58-.31,5.42-.15h.07a9.53,9.53,0,0,0-9.13.53c1.33,1.37,2.19,3.52,3.75,4.93a5.36,5.36,0,0,0,.61.49c.4.37.49,1.19.34,2.31,3.43,1.93,7.91,2.82,8.14,6.12,0,.95-.23,21.59-.23,21.59-.75,3.89-10.24,4.53-12.27,15a5.18,5.18,0,0,0,.49,3.79c.65-.27,1.28-.57,1.9-.9,0-.22.06-.44.1-.66C105.7,79.16,115.82,75.47,117.29,67.85Z"/><path class="cls-3" d="M121.63,70.07c.36-.55.74-1.08,1.15-1.59L122,67.21C121.87,68.16,121.74,69.11,121.63,70.07Z"/><path class="cls-7" d="M77.45,110.18a22.16,22.16,0,0,0-4.4-4.06,6.89,6.89,0,0,0,0,2.64c.31.33.59.61.82.82a10.28,10.28,0,0,0,4.33,2.52,6.2,6.2,0,0,0,.75.14c-.08-.24-.16-.49-.22-.73A3.92,3.92,0,0,1,77.45,110.18Z"/><path class="cls-7" d="M73.05,106.12a22.16,22.16,0,0,1,4.4,4.06,3.92,3.92,0,0,0,1.29,1.33,10.59,10.59,0,0,1-.21-4.78c.83-4.31,3.92-6.28,8-8,6.39-3,18.12,4.2,19.72-4.06,2.42-12.51,15.81-12,16.65-16.27.33-2.73.56-5.45,1-8.1-.33-.63-.68-1.24-1-1.85-.41.51-.79,1-1.15,1.59-.19,1.66-.32,3.34-.35,5a.31.31,0,0,1-.09.18,8.9,8.9,0,0,1-2,.86v0c-.06.31-.11.61-.12.67-.71,3.68-5.15,4.78-9.37,6.63a34.88,34.88,0,0,1-5.55,3.75c-2,2.57-3,6.25-6.55,6.57-2.34.21-4.63.26-6.92.59a20.45,20.45,0,0,1-12.07,5.18c-2.71,1.81-5,4-5.53,6.48C73.06,106.06,73.05,106.09,73.05,106.12Z"/><path class="cls-3" d="M73.06,106c.48-2.44,2.82-4.67,5.53-6.48h-.07c-3,1.25-9-1.33-9.92,3.16a3.6,3.6,0,0,0-.06.66,44.84,44.84,0,0,1,4.51,2.75S73.06,106.06,73.06,106Z"/><path class="cls-3" d="M68.54,103.37a1.48,1.48,0,0,0,0,.21c1.81,2.14,3.4,4,4.53,5.18a6.89,6.89,0,0,1,0-2.64A44.84,44.84,0,0,0,68.54,103.37Z"/><path class="cls-3" d="M104.13,87.21a19.62,19.62,0,0,1-2.28,1,10.84,10.84,0,0,1-1.42.41A17.42,17.42,0,0,1,92,93l-.33.37q-.47.5-1,1C93,94,95.24,94,97.58,93.78,101.1,93.46,102.09,89.78,104.13,87.21Z"/><path class="cls-11" d="M79,111.6a1.14,1.14,0,0,1-.26-.09c.06.24.14.49.22.73a7.45,7.45,0,0,0,2.35,0l.14,0a8,8,0,0,1,1.3-.12l-.12-.27C80.46,111.73,79.07,111.61,79,111.6Z"/><path class="cls-11" d="M106.21,94.7c-1.6,8.26-13.33,1.11-19.72,4.06-4,1.69-7.13,3.66-8,8a10.59,10.59,0,0,0,.21,4.78,1.14,1.14,0,0,0,.26.09c.07,0,1.46.13,3.63.19a5.55,5.55,0,0,1-.41-3.43c.87-4.52,8.47-10.4,19.32-8.3,1,.18,1.94.39,2.91.58,4.3.83,8,1.39,10.11-2.44C117.6,91,121.65,84.6,127,80a28.51,28.51,0,0,0-.77-4.23c-.14-.44-.29-.88-.45-1.31a32.7,32.7,0,0,0-1.92-4.17c-.41,2.65-.64,5.37-1,8.1C122,82.75,108.63,82.19,106.21,94.7Z"/><path class="cls-11" d="M127.11,79.92a23.12,23.12,0,0,0-.91-4.11A28.51,28.51,0,0,1,127,80Z"/><path class="cls-7" d="M127.18,84.66a21.35,21.35,0,0,0-.07-4.74L127,80a19.75,19.75,0,0,1-.18,5.71c-1.31,6.76-13.17,17.12-17.7,20.72-6.29,5.2-19.93,5.51-26.46,5.32l.12.27c6-.16,19.88,3.31,26.12-3.54.67-.73.81-1.81,1.47-2.54,0,0,11.83-10.62,15.81-15C131.27,85.37,126.86,87.36,127.18,84.66Z"/><path class="cls-1" d="M89.23,87.22a1.34,1.34,0,0,0-1.12-1.12c-.52-.1-2.29,1-3.8.81-.57,2.5-2.5,2.42-5.12,1.91-6.71-1.3-23.37-12.2-33.95-32.16-.76-1.39-2.13-2.3-3-3.64-.39,2.27,1.21,8,2.77,10.7,8.71,12.9,5.14,6,10.63,12,.53.48,1.38.64,1.88,1.24,1.36,1.38,1.61,3.3,3,4.68,1.67,1.7,3.83,2.12,5.59,3.33.31.24,6,5.94,13.58,7.41,3.44.66,8.81-.4,9.56-4.29A2.51,2.51,0,0,0,89.23,87.22Z"/><path class="cls-4" d="M89.41,86.92c-.11-.47-.22-1-.31-1.47a9.57,9.57,0,0,0-3.17.14,5.1,5.1,0,0,0-1.59.75A1.78,1.78,0,0,1,82.77,86a1.78,1.78,0,0,0,1.14.89l.16,0a5.14,5.14,0,0,0,2.42-.32,5.6,5.6,0,0,1,1.62-.46,1.31,1.31,0,0,1,1.11,1.1,2.82,2.82,0,0,1,.29.18C89.48,87.23,89.44,87.07,89.41,86.92Z"/><path class="cls-5" d="M89.83,89c-.06-.45-.18-1-.32-1.57a2.82,2.82,0,0,0-.29-.18,1.88,1.88,0,0,1,0,.48,4.18,4.18,0,0,1,0,1.4c-.65,3.35-4.9,4.6-8.46,4.75a11.53,11.53,0,0,0,8.92-3.65A1.62,1.62,0,0,0,89.83,89Z"/><path class="cls-3" d="M42,62.73c.43,3.16.6,4.28,4,7.57.33.32.7.66,1.1,1a47.7,47.7,0,0,0,9,6C52,73.45,45.34,70.26,42,62.73Z"/><path class="cls-3" d="M59.57,82.23A10.4,10.4,0,0,0,57,78.12c1,1.53.87,3.77,2.28,5,.77.71,1.56.56,2.13,1.08s1.22,1.29,1.9,1.91c.25.23.51.45.77.67a31.5,31.5,0,0,0,10.34,5.88A21.32,21.32,0,0,1,66,86.19C64,84.11,60.18,83.91,59.57,82.23Z"/><path class="cls-9" d="M89.21,89.08a4.18,4.18,0,0,0,0-1.4,2.28,2.28,0,0,1,0,.44c-.75,3.89-6.12,4.95-9.56,4.29C72.09,90.94,66.37,85.24,66.06,85c-1.76-1.21-3.92-1.63-5.59-3.33-1.35-1.38-1.6-3.3-3-4.68-.5-.6-1.35-.76-1.88-1.24-5.49-6.07-1.92.87-10.63-12-1.64-2.79-3.33-9-2.69-11-1.84-1.48-1.77.44-.92,5.9.09.6.2,1.24.31,1.92.14.85.23,1.57.32,2.22,3.32,7.53,9.93,10.72,14.13,14.6l.27.15a3.28,3.28,0,0,1,.54.64,10.4,10.4,0,0,1,2.61,4.11c.61,1.68,4.45,1.88,6.46,4a21.32,21.32,0,0,0,8.35,6.52,20.41,20.41,0,0,0,6.37,1.12C84.31,93.68,88.56,92.43,89.21,89.08Z"/><path class="cls-5" d="M61.37,84.25c-.57-.52-1.36-.37-2.13-1.08a4.22,4.22,0,0,1-1.1-1.84c-3.84-1.88-7.3-4.51-8.78-8.21-.76-.57-1.51-1.17-2.19-1.79-.4-.37-.77-.71-1.1-1a20.38,20.38,0,0,0,6.24,9.87A32.65,32.65,0,0,0,64,86.83c-.26-.22-.52-.44-.77-.67C62.59,85.54,62,84.9,61.37,84.25Z"/><path class="cls-4" d="M58.14,81.33c-.47-1.35-.64-2.87-1.72-3.85a58.63,58.63,0,0,1-7.06-4.36C50.84,76.82,54.3,79.45,58.14,81.33Z"/><path class="cls-4" d="M69.52,91c.27,0,.56.06.84.09A32.8,32.8,0,0,1,64,86.83c-.9-.29-1.8-.63-2.68-1C61.27,88,69.24,90.89,69.52,91Z"/><path class="cls-3" d="M90.21,89.24,89.83,89a1.62,1.62,0,0,1-.16,1.23C85,95.35,77.13,94.46,70.36,91c-.28,0-.57,0-.84-.09s-8.25-3-8.16-5.12a31.41,31.41,0,0,1-9-5.66c-.46-.42-.9-.86-1.33-1.31-5.18-4.33-9.91-10.79-9.54-19.93,0-.11,0-.23,0-.34-.38-.45-.75-.91-1.14-1.34.8,2.87-1.48,7.4.6,11,9,16.16,28.33,25,36.64,26.57.87.17,11.6,1.85,12.61-3.37A8.23,8.23,0,0,0,90.21,89.24Z"/><path class="cls-4" d="M51,78.86a19.77,19.77,0,0,1-4.91-8.56c-4.15-4-3.56-4.77-4.37-9.79-.09-.56-.18-1.08-.26-1.58C41.07,68.07,45.8,74.53,51,78.86Z"/><path class="cls-7" d="M39.05,58.28s-.26,1-.43,1.86C35,78.78,62.64,93.29,77.67,96.2c3.07.59,6.59.25,9.08-1.62-3.56,1.11-8.67.3-9.26.19C69.18,93.16,49.83,84.36,40.85,68.2c-2.08-3.55.2-8.08-.6-11-.18-.19-.36-.38-.55-.56a3.83,3.83,0,0,0-2-1A2.62,2.62,0,0,1,39.05,58.28Z"/><path class="cls-1" d="M61.65,94.31a53.14,53.14,0,0,1,5.66,0c.08,0,4.06,3.19,8.47,4A20.5,20.5,0,0,0,84.9,98a18.56,18.56,0,0,0,6.72-4.61c1.27-1.4,1.56-1.54-.47-3.39-.31-.28-.62-.53-.94-.78a8.23,8.23,0,0,1-.11,2.16c-.32,1.69-1.66,2.65-3.35,3.18-2.49,1.87-6,2.21-9.08,1.62C62.64,93.29,35,78.78,38.62,60.14c.17-.87.43-1.85.43-1.86a2.62,2.62,0,0,0-1.34-2.59,1.94,1.94,0,0,0-.4,0c-.22.34-.49.73-.78,1.12a1.5,1.5,0,0,1-.3.62l-.23.13a7.74,7.74,0,0,0-1.14,1.88C30.53,81.78,58.88,93.77,61.65,94.31Z"/><path class="cls-12" d="M36.85,55.79a3,3,0,0,0-.32,1c.29-.39.56-.78.78-1.12A.72.72,0,0,0,36.85,55.79Z"/><path class="cls-9" d="M75.78,98.3c-4.41-.85-8.39-4-8.47-4a53.14,53.14,0,0,0-5.66,0c-2.77-.54-31.12-12.53-26.79-34.9A7.74,7.74,0,0,1,36,57.53a6.58,6.58,0,0,0-1.76,1.27c-1.59,1.74-2.16,4.65-1.35,6.31,1.47,2.75,1.16,5,1.83,7.68a13.07,13.07,0,0,0,2.42,4.82l1.82,2,5.2,5.8c1.51,1.38,3.78,1.78,5.23,2.93A34.15,34.15,0,0,0,60.15,94a23.93,23.93,0,0,0,6.54.88,1.25,1.25,0,0,1,1,.38,4.31,4.31,0,0,1,1.28,2c2.91,2.65,9.78,3.24,15.89.73A20.5,20.5,0,0,1,75.78,98.3Z"/><path class="cls-7" d="M44.88,90.74c-3.82-3.95-9.36-13.8-13.18-14.54a2.56,2.56,0,0,0-.47,0,27.46,27.46,0,0,0,.33,6.47c.4-1.08,1.09-2.26,1.88-2.11,3.84.75,8.11,13.11,13.18,15.54,8.77,4.21,24.29,8.37,22.22,19.88a8.23,8.23,0,0,0,4.61-.6C75.29,102.18,49.93,95.45,44.88,90.74Z"/><path class="cls-11" d="M69,113.66c-.37.35-1.07.49-2.28.26l-15-6.17c-4.64-2-7.14-6-9.78-9.85a16.74,16.74,0,0,0,1,4.48,12.13,12.13,0,0,0,3.18,4.88c3.75,3.42,8.14,1.69,20.39,7.92a8.31,8.31,0,0,0,2.36.76A11.29,11.29,0,0,0,69,113.66Z"/><path class="cls-11" d="M37,93.39a4.16,4.16,0,0,0,2.59,1.33c-2.08-2.55-4.4-4.87-6.65-7.24A16.49,16.49,0,0,0,37,93.39Z"/><path class="cls-9" d="M66.74,113.92c1.21.23,1.91.09,2.28-.26-.23-9.81-14.24-13.68-22.4-17.6-5.07-2.43-9.34-14.79-13.18-15.54-.79-.15-1.48,1-1.88,2.11a22.53,22.53,0,0,0,1.37,4.85c2.25,2.37,4.57,4.69,6.65,7.24.65.07,1.42,0,2.59.16l0,0a7.31,7.31,0,0,0-.18,3c2.64,3.81,5.14,7.86,9.78,9.85Z"/><path class="cls-5" d="M32.35,73.3a1.59,1.59,0,0,0-.7.41,2.76,2.76,0,0,0-.25,1,13,13,0,0,1,2.75,1A27,27,0,0,1,32.35,73.3Z"/><path class="cls-5" d="M60.15,94a34.15,34.15,0,0,1-10.76-5.66c-1.45-1.15-3.72-1.55-5.23-2.93L39,79.65c-.44-.24-.88-.49-1.31-.77C45.82,89.59,57.71,94.3,64.24,98.57,62.88,97,61.49,95.46,60.15,94Z"/><path class="cls-5" d="M69,97.67l.64.12a5.34,5.34,0,0,1-.65-.5,4.31,4.31,0,0,0-1.28-2,1.25,1.25,0,0,0-1-.38A23.93,23.93,0,0,1,60.15,94c1.51,1.6,3.08,3.36,4.6,5.12a1.7,1.7,0,0,1,0-.64C65,97.2,66,97.08,69,97.67Z"/><path class="cls-4" d="M78.52,99.55c-3.57.29-6.85-.36-8.86-1.76L69,97.67c-3-.59-4-.47-4.28.85a1.7,1.7,0,0,0,0,.64c1.31,1.52,2.59,3,3.78,4.42a4.94,4.94,0,0,1,.07-.87C69.47,98.22,75.5,100.8,78.52,99.55Z"/><path class="cls-3" d="M74.47,110.67a5.82,5.82,0,0,1-1.65-2.16c-2-2.13-5.2-6.05-8.58-9.94-6.53-4.27-18.42-9-26.59-19.69a15.56,15.56,0,0,1-1.87-1.44,16.74,16.74,0,0,1-1.63-1.73,13,13,0,0,0-2.75-1,14.16,14.16,0,0,0-.17,1.49,2.56,2.56,0,0,1,.47,0c3.82.74,9.36,10.59,13.18,14.54,5,4.71,30.41,11.44,28.57,24.6a11,11,0,0,0,1.38-.68,4.65,4.65,0,0,0,.61-1.48A2.47,2.47,0,0,0,74.47,110.67Z"/><path class="cls-5" d="M78.21,112.1a10.28,10.28,0,0,1-4.33-2.52c-.29-.27-.65-.63-1.06-1.07a5.82,5.82,0,0,0,1.65,2.16,2.47,2.47,0,0,1,1,2.51,4.65,4.65,0,0,1-.61,1.48A18.34,18.34,0,0,0,78.21,112.1Z"/><path class="cls-3" d="M83.07,86.36a2.4,2.4,0,0,1-.3-.41c-.23-.17-.44-.35-.6-.49a4.38,4.38,0,0,1-.51-.55,16.89,16.89,0,0,1-5.24.58,19.28,19.28,0,0,1-7.77-3.16c2.69,2.28,5.91,4.48,9,5.09A6.8,6.8,0,0,0,83.07,86.36Z"/><path class="cls-9" d="M83.07,86.36a6.8,6.8,0,0,1-5.41,1.06c-3.1-.61-6.32-2.81-9-5.09a26.54,26.54,0,0,1-4.17-3.46l-.34.24.33-.25a20.65,20.65,0,0,1-1.86-2.16,20.65,20.65,0,0,0,1.86,2.16l.28-.2a1.63,1.63,0,0,1-.22-.17l-.24.15c-10.48-12.08-16.6-20.1-20-23.89a20,20,0,0,0-2-2.06,2.66,2.66,0,0,0-.08.33c.88,1.34,2.25,2.25,3,3.64,10.58,20,27.24,30.86,33.95,32.16,2.62.51,4.55.59,5.12-1.91l-.24,0A1.84,1.84,0,0,1,83.07,86.36Z"/><path class="cls-5" d="M70.11,74.34a14.67,14.67,0,0,1-8.44.8L61.19,75l3.1,3.61c2.37-1.54,4.85-3.23,7.3-5l-.29.15A8,8,0,0,1,70.11,74.34Z"/><path class="cls-3" d="M70.11,74.34a9.77,9.77,0,0,1-5.26.23,9.25,9.25,0,0,1-5-2.95c-4.2-4.45-8-8-10.94-11.41,3,3.69,7,8.64,12.3,14.82l.48.11A14.67,14.67,0,0,0,70.11,74.34Z"/><path class="cls-13" d="M71.3,73.81l.29-.15.12-.09C71.58,73.66,71.44,73.73,71.3,73.81Z"/><path class="cls-3" d="M88.52,57c-3.33,3.31-6.79,8.29-10.94,12.23a95,95,0,0,0,11.17-9.62,41,41,0,0,0,3.44-4.31c-.94.29-1.84.62-2.7,1Z"/><path class="cls-5" d="M73.07,72.6c1.54-1.12,3.06-2.24,4.51-3.36C81.73,65.3,85.19,60.32,88.52,57,80.23,63.28,76.91,69.42,73.07,72.6Z"/><path class="cls-5" d="M93.74,88.35a43,43,0,0,1-4.33-1.43c.17.77.34,1.47.42,2,.45.34.89.68,1.32,1.07l.07.07A2.77,2.77,0,0,1,93.74,88.35Z"/><path class="cls-4" d="M93.74,88.35a2.77,2.77,0,0,0-2.52,1.74C93,91.7,92.91,92,92,93a17.42,17.42,0,0,0,8.48-4.38A14.43,14.43,0,0,1,93.74,88.35Z"/><path class="cls-9" d="M110,28.54c7.29,1.41,10.82,6.16,13.68,11.94a10.35,10.35,0,0,0-3.59-7.86,17.26,17.26,0,0,0-5.89-3.22c-.35-.32-.69-.86-1.14-1.27a5.49,5.49,0,0,0-2.54-1.26c-2.31-.54-5.08-.16-7.33-.8-1.74-.6-3-1.94-5.61-1.15L97,25.1A36.28,36.28,0,0,1,90.41,27a15.31,15.31,0,0,0,2.07.52C98.47,28.63,103.61,27.31,110,28.54Z"/><path class="cls-1" d="M128.21,56.18a10.53,10.53,0,0,0-1,2.79,12.17,12.17,0,0,0,1.64,8.22A21.84,21.84,0,0,0,128.21,56.18Z"/><path class="cls-6" d="M128.21,56.18c-1.24-4.47-3.22-9-4.36-13.86-.1-.57-.15-1.18-.2-1.84C120.79,34.7,117.26,30,110,28.54c-6.36-1.23-11.5.09-17.49-1.07A15.31,15.31,0,0,1,90.41,27a15.43,15.43,0,0,0-2.64.88,1.23,1.23,0,0,0-.08.23c-.09.48.79,1,1.27,1a14.19,14.19,0,0,1,5.61-.17c2.37.46,4.69,1.44,7.09,1.91,3.68.71,5.78-.36,8.09.09,3.08.59,4.92,3.6,6.8,5.85,4.78,5.68,9.51,10.73,8.26,18.75-.82,5.24.77,10.21,2.87,15.08a20.24,20.24,0,0,0,1.12-3.13c0-.09,0-.19.07-.29A12.17,12.17,0,0,1,127.23,59,10.53,10.53,0,0,1,128.21,56.18Z"/><path class="cls-6" d="M122.5,64c1.13-7.14,2.23-14-.57-19.74,1.1,2.94-.53,7.23-.13,9.76A85.52,85.52,0,0,1,122.5,64Z"/><path class="cls-6" d="M121.36,43.17a16.75,16.75,0,0,0-3.16-3.87,35,35,0,0,0-4.35-2.65c-.6-.54-.26-.94-1.5-2.07a8.65,8.65,0,0,0-1.77-1.25h-.07l-.13,0a66.57,66.57,0,0,0,10.42,9.26A4.08,4.08,0,0,1,121.36,43.17Z"/><path class="cls-9" d="M122.5,64a85.52,85.52,0,0,0-.7-10c-.4-2.53,1.23-6.82.13-9.76-.18-.36-.37-.71-.57-1.06a4.08,4.08,0,0,0-.56-.62,66.57,66.57,0,0,1-10.42-9.26c-1.1-.2-5.09-.84-5.29.18-1.45,7.53,11.61,7.83,11.64,12.9,0,6.69-1.32,12.73.52,19a5.58,5.58,0,0,1,0,2.47c-1.47,7.62-11.59,11.31-13,18.66,0,.22-.08.44-.1.66A30,30,0,0,0,108,84.76a63.66,63.66,0,0,1,13.33-10.4,63.63,63.63,0,0,1,.71-7.15C122.16,66.12,122.33,65,122.5,64Z"/><path class="cls-11" d="M108,84.76c3.62-2.64,6.87-5.89,10.75-8.41.8-.5,2.11-.7,2.47-1.1a.31.31,0,0,0,.09-.18c0-.23,0-.47,0-.71A63.66,63.66,0,0,0,108,84.76Z"/><path class="cls-5" d="M123.05,60.43c-.32,2.22-.71,4.49-1,6.78.65,1,1.26,2.08,1.84,3.14-.06-.42-.12-.89-.18-1.43C123.63,68.6,123.28,64,123.05,60.43Z"/><path class="cls-3" d="M127.68,70.61c-2.1-4.87-3.69-9.84-2.87-15.08,1.25-8-3.48-13.07-8.26-18.75-1.88-2.25-3.72-5.26-6.8-5.85-2.31-.45-4.41.62-8.09-.09-2.4-.47-4.72-1.45-7.09-1.91A14.19,14.19,0,0,0,89,29.1c-.48-.09-1.36-.56-1.27-1a1.23,1.23,0,0,1,.08-.23,8.18,8.18,0,0,0-2.19,1.41l0,0a16.9,16.9,0,0,0-2.79,5.48c.35.64.67,1.27,1,1.87a16.57,16.57,0,0,1,2.06-3.24c.86-.95,3-2.83,4.21-1.77.11.1.16.21.11.26a1.63,1.63,0,0,0,0,.82,3.92,3.92,0,0,1,1.32,0,4.89,4.89,0,0,1,.79-1.5c1.49-1.63,7.91,1.48,9,2.43a3.19,3.19,0,0,1,.26.26c3.48-2,7.74-2.17,10.9.72,1.24,1.13.9,1.53,1.5,2.07a35,35,0,0,1,4.35,2.65c6.28,5.73,6,13.15,4.85,21.13.23,3.61.58,8.17.62,8.49.06.54.12,1,.18,1.43a33.74,33.74,0,0,1,1.9,4.15C126.43,73.19,127.1,71.9,127.68,70.61Z"/><path class="cls-11" d="M38.6,112a11.3,11.3,0,0,1-7.19-4.41c-8.32-12.09-25.33-14-24-20.86A2.64,2.64,0,0,1,8,85.51a12.77,12.77,0,0,0-2.41,1.6c-1.54,10,16.71,4.16,17.27,18.13.32,5.33,3.14,13.06,8.4,14.08,4.4.85,16.51-5.37,26.86-3.37a43.4,43.4,0,0,1,4.54,1.22A36.53,36.53,0,0,0,51.21,113C44.56,111.66,41.66,112.55,38.6,112Z"/><path class="cls-7" d="M24.81,99.52C20.42,95.9,8.42,91.62,9.69,85c0-.12.06-.25.1-.37A19.46,19.46,0,0,0,8,85.51a2.64,2.64,0,0,0-.53,1.18c-1.34,6.89,15.67,8.77,24,20.86A11.3,11.3,0,0,0,38.6,112c2.6.5,5.09-.07,9.87.54-5-1.5-9.09-2.74-9.94-3.09C33.21,107.18,29.29,103.05,24.81,99.52Z"/><path class="cls-3" d="M60.45,116c.73.36,1.45.74,2.16,1.15a99.5,99.5,0,0,0,10.11,2.9c2.39.47,7.08.72,9.5-.13a5,5,0,0,0,.41-.38,2.28,2.28,0,0,0,.82-1.94,14.71,14.71,0,0,1-10.69,2S67.14,118,60.45,116Z"/><path class="cls-3" d="M69.94,118.72a8.4,8.4,0,0,1-2.62-1,78.55,78.55,0,0,0-13.15-5.64c-5.47-1.91-11-3.6-16.45-6.16-1.43-.67-2.24-2.58-3.63-3.44a74.61,74.61,0,0,0-8.87-4.74c-3.93-2-7.64-4.11-10-7.91-1.09-1.74-1.76-4.44-3.41-6l-.93.34-1.09.44c0,.12-.07.25-.1.37-1.27,6.6,10.73,10.88,15.12,14.5s8.4,7.66,13.72,9.89c.85.35,4.9,1.59,9.94,3.09.84.11,1.75.25,2.74.45A36.77,36.77,0,0,1,60.45,116c6.69,2,12.3,3.56,12.31,3.56a14.71,14.71,0,0,0,10.69-2,13.65,13.65,0,0,0-1.45-4C77.72,114.94,77.24,120.13,69.94,118.72Z"/><path class="cls-5" d="M14.18,83.11l-.62.19c.81,1.7,1.43,3.49,2.18,5.17A52.72,52.72,0,0,0,14.18,83.11Z"/><path class="cls-5" d="M82,113.64q-.3-.66-.69-1.44a7.45,7.45,0,0,1-3.1-.1c-3.22,3-7.28,5.26-11.73,3.08a58.82,58.82,0,0,0-11.3-4.47c7.1,3.26,12.55,5.59,14.81,6,3.82.74,6.42-1.08,9.89-2A6.69,6.69,0,0,1,82,113.64Z"/><path class="cls-4" d="M55.18,110.71c-4.33-1.2-6.83-1.38-9.09-3.45a10.44,10.44,0,0,1-1.28-1.39c-7.42-3.5-15.6-7.4-23.42-11a9.85,9.85,0,0,1-4.27-3.78l-.05,0a4.46,4.46,0,0,1-1.23-2.17c0-.15-.07-.28-.1-.42C15,86.79,14.37,85,13.56,83.3l-1.75.57c1.65,1.57,2.32,4.27,3.41,6,4.16,6.69,12.48,8.29,18.87,12.65,1.39.86,2.2,2.77,3.63,3.44,9.86,4.65,20.07,6.43,29.6,11.8a8.4,8.4,0,0,0,2.62,1c5.9,1.14,7.34-2,9.94-4-3.47.91-6.07,2.73-9.89,2C67.73,116.3,62.28,114,55.18,110.71Z"/><path class="cls-5" d="M21.39,94.87c7.82,3.6,16,7.5,23.42,11a12.56,12.56,0,0,1-1.9-3.49A123,123,0,0,1,17.12,91.09,9.85,9.85,0,0,0,21.39,94.87Z"/><path class="cls-14" d="M35.75,121.29c4.32,0,9.09-1.09,13.11-1.3a137.11,137.11,0,0,1,20.93.74c-2.92-.68-5.84-1.43-8.8-2C51.12,116.82,42.21,119.75,35.75,121.29Z"/><path class="cls-15" d="M82.22,119.94c-2.42.85-7.11.6-9.5.13-5-1-10.53-3.32-14.65-4.12-10.35-2-22.46,4.22-26.86,3.37-5.26-1-8.08-8.75-8.4-14.08C22.25,91.27,4,97.07,5.54,87.11a8,8,0,0,0-.66.64c-2.07,2.26-2.54,6,.69,8.9C9.28,100,16.89,102.27,20,105.09c4.07,3.71,3.52,9.88,7.55,13.56,2.2,2,5.09,2.62,8.22,2.64,6.46-1.54,15.37-4.47,25.24-2.56,3,.57,5.88,1.32,8.8,2C75.92,121.3,80.11,121.65,82.22,119.94Z"/><path class="cls-3" d="M113.42,80.37c-1.25,1-2.48,2.09-3.74,3.09,4.22-1.85,8.66-2.95,9.37-6.63,0-.06.06-.36.12-.67v0a2.84,2.84,0,0,0-.46.24l-.48.32A8.11,8.11,0,0,1,113.42,80.37Z"/><path class="cls-5" d="M118.24,76.67a60.3,60.3,0,0,0-4.82,3.7A8.11,8.11,0,0,0,118.24,76.67Z"/><path class="cls-5" d="M37.05,51.58c-.4-.41-.81-.82-1.22-1.22l-.76-.73a20.33,20.33,0,0,1-3.92,2c1.85,0,3.6-.08,5.06-.07Z"/><path class="cls-7" d="M24.52,63.61q.09-.72.12-1.41c-.68-.61-1.4-1.17-2.14-1.72A36.33,36.33,0,0,1,24.52,63.61Z"/><path class="cls-5" d="M42.13,94.91l0,0c-1.48-.14-2.33-.07-3.08-.24,1.4,1.8,2.27,3.66,1.84,5.9a7.49,7.49,0,0,1-.32,1.12c.76.25,1.52.49,2.3.72C41.58,98.76,41.87,95.19,42.13,94.91Z"/><path class="cls-5" d="M30.33,81.24a13.57,13.57,0,0,0,2.75,6.6c-2.82-6.45-1.79-13.74-1.43-14.13a1.59,1.59,0,0,1,.7-.41c-2.56-3.81-4.54-8.22-7.6-11a.52.52,0,0,0-.11-.1q0,.69-.12,1.41A46,46,0,0,1,30.33,81.24Z"/><path class="cls-3" d="M22.83,71.16c-1.72,8.87,13,20.44,12.58,27,2.9.1,5.1-.39,5.28-.71a9.85,9.85,0,0,0-1.6-2.76A4.56,4.56,0,0,1,37,93.39a16.31,16.31,0,0,1-3.91-5.55,13.57,13.57,0,0,1-2.75-6.6,46,46,0,0,0-5.81-17.63c-.07.62-.16,1.26-.29,1.92C23.84,67.55,22.86,71,22.83,71.16Z"/><path class="cls-3" d="M40.69,97.4c-.18.32-2.38.81-5.28.71a4,4,0,0,1-.06.5A4.38,4.38,0,0,1,35,99.67c1.78.68,3.66,1.36,5.59,2a7.49,7.49,0,0,0,.32-1.12A5.9,5.9,0,0,0,40.69,97.4Z"/><path class="cls-9" d="M9.53,72.81a18.45,18.45,0,0,1-2.72-3.08,3,3,0,0,0,.76,1.6c.76.94,1.47,1.88,2.11,2.83l1.15-.09A14.12,14.12,0,0,0,9.53,72.81Z"/><path class="cls-11" d="M13.68,78.28c3,5.85,3.86,12.83,11,16.89l1.7.81C26.91,88.73,19.62,83.42,13.68,78.28Z"/><path class="cls-9" d="M13.68,78.28c-1.17-1-2.28-2-3.27-3a38.58,38.58,0,0,1,3.77,7.85,53.15,53.15,0,0,1,1.66,5.78,4.46,4.46,0,0,0,1.23,2.17c.09.08,3,1.83,7.64,4.11C17.54,91.11,16.65,84.13,13.68,78.28Z"/><path class="cls-9" d="M10.83,74.07l-1.15.09c.25.36.49.73.73,1.1,1,1,2.1,2,3.27,3A18.7,18.7,0,0,0,10.83,74.07Z"/><path class="cls-7" d="M35.41,98.11a21,21,0,0,1-3.3-.37,27.36,27.36,0,0,1-4.95-1.41c2.33,1.08,5,2.23,7.86,3.34a4.38,4.38,0,0,0,.33-1.06A4,4,0,0,0,35.41,98.11Z"/><path class="cls-7" d="M35.41,98.11c.4-6.51-14.3-18.08-12.58-26.95,0-.16,1-3.61,1.4-5.63.13-.66.22-1.3.29-1.92a36.33,36.33,0,0,0-2-3.13c-1.06-.79-2.14-1.56-3.17-2.41,0,3.1,2.32,7,1.69,10.29-.81,4.17-5.33,5.27-10.19,5.71a18.7,18.7,0,0,1,2.85,4.21C19.62,83.42,26.91,88.73,26.41,96l.75.35a27.36,27.36,0,0,0,4.95,1.41A21,21,0,0,0,35.41,98.11Z"/><path class="cls-5" d="M8.13,60.09a22.14,22.14,0,0,1,1.56,5c.37-.46.77-1,1.21-1.54C10,62.41,9.07,61.25,8.13,60.09Z"/><path class="cls-4" d="M4.09,55.12a2.28,2.28,0,0,1-.36-.85c-.16.67-.28,1.37-.41,2.08,4.17,5,4.73,6.46,5,10.5l1.37-1.72a22.14,22.14,0,0,0-1.56-5C6.8,58.45,5.44,56.81,4.09,55.12Z"/><path class="cls-5" d="M10,74.71c.33.88,1,1.78,1.3,2.72a13.21,13.21,0,0,1,.13,6.46l0,.12c.92-.33,1.85-.63,2.74-.9A38.14,38.14,0,0,0,10,74.71Z"/><path class="cls-4" d="M11.34,77.43c-.3-.94-1-1.84-1.3-2.72-.42-.65-.86-1.29-1.34-1.93.44,2.85,2,5.21,1.42,8.35a6.61,6.61,0,0,1-.24.9c.36.72.7,1.45,1,2.18l.56-.2,0-.12A13.21,13.21,0,0,0,11.34,77.43Z"/><path class="cls-7" d="M.9,65.44c-.81,1.83,1.91,5.41,4.9,9.83.32-5.45-.32-10.86-3.09-15.37A22.52,22.52,0,0,1,.9,65.44Z"/><path class="cls-3" d="M9.88,82a6.61,6.61,0,0,0,.24-.9c.61-3.14-1-5.5-1.42-8.35-.36-.49-.74-1-1.13-1.45-1.26-1.61-.92-2.37.75-4.48-.27-4-.83-5.52-5-10.5-.19,1.14-.37,2.33-.61,3.55,2.77,4.51,3.41,9.92,3.09,15.37A58.54,58.54,0,0,1,9.88,82Z"/><path class="cls-11" d="M19.33,58.07l-.35-.3-.43-.37a15.28,15.28,0,0,1-1.48-1.52A41.86,41.86,0,0,1,8.75,66.3c-1.31,1.64-2,2.53-1.94,3.43a18.45,18.45,0,0,0,2.72,3.08,14.12,14.12,0,0,1,1.3,1.26c4.86-.44,9.38-1.54,10.19-5.71C21.65,65.11,19.31,61.17,19.33,58.07ZM11.47,69.94c-1.22-.24-1.27-1-1-2.26.59-3.05,3.48-5.38,5.2-8.07.27,0,.6-.17.87-.12,1.1.21,1,5.93.82,7C16.84,69,13.72,70.37,11.47,69.94Z"/><path class="cls-9" d="M16.51,59.49c-.27-.05-.6.17-.87.12-1.72,2.69-4.61,5-5.2,8.07-.24,1.25-.19,2,1,2.26,2.25.43,5.37-.9,5.86-3.41C17.54,65.42,17.61,59.7,16.51,59.49Z"/><path class="cls-3" d="M2.62,43.76c.22-1.12,2.25-4.17,3.7-8.57C2.65,40.48.84,43.44.24,45.44c.78,0,1.56.05,2.32,0A6.72,6.72,0,0,1,2.62,43.76Z"/><path class="cls-3" d="M26.68,40c.18-.95-.51-2.63-1.25-4.5-5.43,6.3-13.14,9.86-22.87,10,.27,3.55,2.53,9.19,6.33,9.93,3.52.68,5.23-2,5.91-5.52.15-.75.27-1.53.42-2.3a15.46,15.46,0,0,1,.83-3,2.29,2.29,0,0,1,.63-1.89c1.25-1.38,4.72-1.54,8.52-1.24A1.88,1.88,0,0,0,26.68,40Z"/><path class="cls-3" d="M24.44,29.17a.53.53,0,0,1,0-.12,5.47,5.47,0,0,1-.36-.86,4.38,4.38,0,0,0-.21.73c-.36,1.83.63,4.35,1.53,6.59.36-.41.71-.85,1.05-1.29C25.37,32,24.29,29.91,24.44,29.17Z"/><path class="cls-5" d="M26.48,34.22c.24-.31.48-.63.71-1a48.31,48.31,0,0,1-2.72-4.21.53.53,0,0,0,0,.12C24.29,29.91,25.37,32,26.48,34.22Z"/><path class="cls-5" d="M27.19,33.26c-.23.33-.47.65-.71,1,1.21,2.47,2.46,5.19,2.17,6.7a4.67,4.67,0,0,1-.28.92c1.16.16,2.3.33,3.37.52A31.62,31.62,0,0,0,27.19,33.26Z"/><path class="cls-4" d="M26.48,34.22c-.34.44-.69.88-1.05,1.29.74,1.87,1.43,3.55,1.25,4.5A1.88,1.88,0,0,1,25.2,41.5c1.05.08,2.11.2,3.17.34a4.67,4.67,0,0,0,.28-.92C28.94,39.41,27.69,36.69,26.48,34.22Z"/><path class="cls-4" d="M15.65,52.69c.63-3.25.07-4.87.42-6.68l.1-.47a9.18,9.18,0,0,1-.12-.91,15.46,15.46,0,0,0-.83,3c-.15.77-.27,1.55-.42,2.3-.68,3.53-2.39,6.2-5.91,5.52-3.8-.74-6.06-6.38-6.33-9.93-.76,0-1.54,0-2.32,0-.87,2.86.76,3.74,3,6.68a9.42,9.42,0,0,1,.51,2.15,2.28,2.28,0,0,0,.36.85c1.5,1.87,3,3.69,4.48,5.52l.14,0C10.49,61,14.48,58.74,15.65,52.69Z"/><path class="cls-5" d="M16.41,52.3a12.21,12.21,0,0,1,1.39-.12c-.77-3.29-1.37-5.29-1.63-6.64l-.1.47c-.35,1.81.21,3.43-.42,6.68-1.17,6.05-5.16,8.32-6.94,8l-.14,0c.79,1,1.57,2,2.33,3a85.14,85.14,0,0,0,4.9-7.23l.7-1.25C15.88,54.13,15.65,53.12,16.41,52.3Z"/><path class="cls-7" d="M24.11,28.19a1.53,1.53,0,0,1,.19-1.6,15.9,15.9,0,0,1,4.4-2.9c-.24,0-.47-.06-.7-.11-3.95-.76-7.83-3.66-11.85-4.44a6.41,6.41,0,0,0-4.43.5c-.58,3.08-.49,8.57-3,12.18C7.82,33,7,34.16,6.32,35.19c-1.45,4.4-3.48,7.45-3.7,8.57a6.72,6.72,0,0,0-.06,1.72c9.73-.11,17.44-3.67,22.87-10-.9-2.24-1.89-4.76-1.53-6.59A4.38,4.38,0,0,1,24.11,28.19Zm-16.5,13A.87.87,0,0,1,6.89,40a41.87,41.87,0,0,0,5.86-14.15,35.85,35.85,0,0,0,.64-5.45c2.84,2.18,8.21,4.56,7.06,10.52C19.24,37.13,9.93,41.61,7.61,41.16Z"/><path class="cls-11" d="M13.39,20.4a35.85,35.85,0,0,1-.64,5.45A41.87,41.87,0,0,1,6.89,40a.87.87,0,0,0,.72,1.16c2.32.45,11.63-4,12.84-10.24C21.6,25,16.23,22.58,13.39,20.4Z"/><path class="cls-5" d="M17.29,50.1c.16.63.33,1.32.51,2.08h.27a27.25,27.25,0,0,1,3.51-5.42,6.61,6.61,0,0,1,2.57-1.82C22.58,45.11,20.33,47.49,17.29,50.1Z"/><path class="cls-3" d="M25.12,44.34c-4.58-.89-6.13,1.93-8.19,4.31l.36,1.45c3-2.61,5.29-5,6.86-5.17a5.32,5.32,0,0,1,2-.34C25.83,44.49,25.48,44.41,25.12,44.34Z"/><path class="cls-5" d="M35.83,50.36c-.46-1.43-.93-2.9-1.28-4.46a3.4,3.4,0,0,1-2,1.49c.62.49,1.24,1,1.84,1.56S35.34,49.88,35.83,50.36Z"/><path class="cls-3" d="M34.55,45.9c-.07-.3-.13-.59-.18-.9a2,2,0,0,1,.43-1.56,5.78,5.78,0,0,1-5.57,1.91,16.14,16.14,0,0,1,3.2,2l.07,0A3.4,3.4,0,0,0,34.55,45.9Z"/><path class="cls-11" d="M27.26,42.78c-4.37-.84-9.35-1.11-11.18,2.19a33.69,33.69,0,0,0,.85,3.68c2.06-2.38,3.61-5.2,8.19-4.31.36.07.71.15,1.06.25a7.83,7.83,0,0,1,3.05.76,5.78,5.78,0,0,0,5.42-1.74c-1,.16-2.69.08-6.13-.58Z"/><path class="cls-9" d="M35.09,43c-1-.19-2.12-.4-3.35-.61-5.6-1-13.09-1.79-15.06.38a2.47,2.47,0,0,0-.6,2.23c1.83-3.3,6.81-3,11.18-2.19l1.26.25c3.44.66,5.15.74,6.13.58l.15-.17C34.9,43.29,35,43.13,35.09,43Z"/><path class="cls-11" d="M34.34,49c-.63-.57-1.27-1.12-1.91-1.61a13.15,13.15,0,0,0-5-2.59,9.74,9.74,0,0,1,1.68,2.06l.25,0a10.74,10.74,0,0,1,5.46,2.92,1.64,1.64,0,0,1,.22-.14Z"/><path class="cls-3" d="M29.14,46.81a4,4,0,0,1,.62,2.82,3.69,3.69,0,0,1-1.18,2.09l2.57-.07a20.49,20.49,0,0,0,3.7-1.88,10.74,10.74,0,0,0-5.46-2.92Z"/><path class="cls-9" d="M29.14,46.81a9.74,9.74,0,0,0-1.68-2.06,5.79,5.79,0,0,0-5.88,2,27.25,27.25,0,0,0-3.51,5.42l1.25-.07C21.72,48.26,24,45.9,29.14,46.81Z"/><path class="cls-7" d="M29.14,46.81c-5.14-.91-7.42,1.45-9.82,5.29,2.36-.12,5.82-.27,9.26-.38a3.69,3.69,0,0,0,1.18-2.09A4,4,0,0,0,29.14,46.81Z"/><path class="cls-7" d="M16.5,55.11l-.7,1.25a85.14,85.14,0,0,1-4.9,7.23c-.84,1.1-1.56,2-2.15,2.71a41.86,41.86,0,0,0,8.32-10.42A8,8,0,0,1,16.5,55.11Z"/><path class="cls-5" d="M49.29,45.22a16.32,16.32,0,0,0,1.87-3.43c-1.57-2.33-2.09-5.83-1.79-9.38-.1.42-.19.79-.25,1.11a66.84,66.84,0,0,0-.88,9.33c-.08.42-.88.62-1.44.51a4.63,4.63,0,0,1-1.52-.65c0,.14,0,.29,0,.44C46.47,43.84,47.82,44.53,49.29,45.22Z"/><path class="cls-3" d="M48.24,42.85a66.84,66.84,0,0,1,.88-9.33c.06-.32.15-.69.25-1.11a21.38,21.38,0,0,1,3.2-9.77c-3.49,3.42-4.52,9.22-6.08,13.79a6.15,6.15,0,0,1-2.21,2.89,6.11,6.11,0,0,1,1,3.39,4.63,4.63,0,0,0,1.52.65C47.36,43.47,48.16,43.27,48.24,42.85Z"/><path class="cls-16" d="M41.39,58.59c0-.25-.08-.49-.11-.72l-.15.41Z"/><path class="cls-3" d="M38.73,45c-.78,4,1.67,6.95,1.15,9.61a3.6,3.6,0,0,1-.71,1.65,4.73,4.73,0,0,1,.53.41,17.1,17.1,0,0,1,1.43,1.59l.15-.41c-.72-4.75-.73-6.49.87-5.3a69.1,69.1,0,0,1,.62-8.35c0-.1.11-.49.23-.94A22,22,0,0,0,41.82,41,6.22,6.22,0,0,0,38.73,45Z"/><path class="cls-5" d="M42.15,52.57a16.72,16.72,0,0,1,2.18,2.18A32.32,32.32,0,0,1,44,50a13.09,13.09,0,0,0-1-6.68c-.12.45-.21.84-.23.94A69.1,69.1,0,0,0,42.15,52.57Z"/><path class="cls-1" d="M38.36,35.77a65.22,65.22,0,0,0,3.33-10.49c.26-1.37,2.62-1.23,5.7-1.26a4.75,4.75,0,0,1,1.89-1.22c-3,.4-7.64.2-8.6,1.25a77.65,77.65,0,0,0-4.29,13A21.52,21.52,0,0,0,38.36,35.77Z"/><path class="cls-9" d="M41.69,25.28a65.22,65.22,0,0,1-3.33,10.49A27,27,0,0,0,46.79,24.9a3.69,3.69,0,0,1,.6-.88C44.31,24.05,42,23.91,41.69,25.28Z"/><path class="cls-1" d="M38.36,35.77a21.52,21.52,0,0,1-2,1.29,49.16,49.16,0,0,0-.9,4.95,3.42,3.42,0,0,1-.4,1c-.41.7-.9,1.31-.72,2A26.23,26.23,0,0,0,35,47.81a6.11,6.11,0,0,1,0-2A66.37,66.37,0,0,1,38.36,35.77Z"/><path class="cls-1" d="M53,22l-2.91.66c-.26.05-.54.1-.84.14A4.75,4.75,0,0,0,47.39,24a34.11,34.11,0,0,0,4.17-.24,10.84,10.84,0,0,1,1-1.14C52.72,22.42,52.87,22.2,53,22Z"/><path class="cls-9" d="M17.83,54.89c.43-2.2,11.27-1.13,16.26-2.47a6.06,6.06,0,0,0,.84-.84c-5.37.05-13.42.39-16.86.59H17.8a12.21,12.21,0,0,0-1.39.12c-.76.82-.53,1.83.09,2.81a12.44,12.44,0,0,0,2.05,2.29l.13.11A3.51,3.51,0,0,1,17.83,54.89Z"/><path class="cls-7" d="M36,51.58h-1a6.06,6.06,0,0,1-.84.84A4.93,4.93,0,0,0,36,51.58Z"/><path class="cls-5" d="M33.2,74.51A22.6,22.6,0,0,0,35,76.69a49.91,49.91,0,0,0-2.14-4.85C33,72.7,33.09,73.6,33.2,74.51Z"/><path class="cls-5" d="M39,79.65l-1.82-2a13.07,13.07,0,0,1-2.42-4.82c-.67-2.67-.36-4.93-1.83-7.68a4.85,4.85,0,0,1-.26-2.9,5.36,5.36,0,0,0-.45,1.35c-.19,1,.21,4.3.7,8.28A49.91,49.91,0,0,1,35,76.69c.25.26.5.51.76.75A15.93,15.93,0,0,0,39,79.65Z"/><path class="cls-3" d="M29.05,60.72s.14,2.16.33,5.38a41.29,41.29,0,0,1,3.5,5.74c-.49-4-.89-7.29-.7-8.28a5.36,5.36,0,0,1,.45-1.35,6.88,6.88,0,0,1,1.61-3.41,7.89,7.89,0,0,1,2-1.4l0,0C33.41,57.46,29.87,56.5,29.05,60.72Z"/><path class="cls-3" d="M29.38,66.1c0,.8.09,1.68.14,2.6.92,1.54,1.83,3.11,2.83,4.6.27.41.56.81.85,1.21-.11-.91-.22-1.81-.32-2.67A41.29,41.29,0,0,0,29.38,66.1Z"/><path class="cls-11" d="M22.85,58.09c.58-3,7.54-2.55,11.24-5.67-5,1.34-15.83.27-16.26,2.47A2.58,2.58,0,0,0,18,56.27a29.51,29.51,0,0,1,5.4,3.48C23.08,58.72,22.85,58.09,22.85,58.09Z"/><path class="cls-11" d="M18,56.27a5.54,5.54,0,0,0,.69,1.24l.3.26c1.57,1.36,3.32,2.48,4.92,3.8-.18-.69-.36-1.31-.51-1.82A29.51,29.51,0,0,0,18,56.27Z"/><path class="cls-7" d="M23.39,59.75c.15.51.33,1.13.51,1.82.29.23.58.48.85.73a28,28,0,0,1,4.77,6.4c-.05-.92-.1-1.8-.14-2.6A33.68,33.68,0,0,0,23.39,59.75Z"/><path class="cls-11" d="M22.85,58.09s.23.63.54,1.66a33.68,33.68,0,0,1,6,6.35c-.19-3.22-.33-5.38-.33-5.38.82-4.22,4.36-3.26,7.2-3.35.39-.47.34-1.29.6-1.58s1.21-.25,2.32.49a3.6,3.6,0,0,0,.71-1.65C40.4,52,38,49.06,38.73,45A6.22,6.22,0,0,1,41.82,41c0-.06-.07-.13-.11-.2l0,0c-.66-1.11-1.42-2.22-2.22-3.36a2.57,2.57,0,0,1,.39-1.06c.22-.24,2.32.84,3.39,1.82a6.39,6.39,0,0,1,1.05,1.21,6.15,6.15,0,0,0,2.21-2.89c1.4-4.1,2.37-9.18,5.07-12.65a34.11,34.11,0,0,1-4.17.24,3.69,3.69,0,0,0-.6.88,27,27,0,0,1-8.43,10.87A66.37,66.37,0,0,0,35,45.86a6.11,6.11,0,0,0,0,2c.25.87.52,1.72.79,2.55.2.2.4.41.61.61a1.52,1.52,0,0,0,.09-.28,1.52,1.52,0,0,1-.09.28c.2.2.41.4.61.61H36a4.93,4.93,0,0,1-1.87.84C30.39,55.54,23.43,55.1,22.85,58.09Z"/><path class="cls-6" d="M50.47,30.26a24.83,24.83,0,0,0,.79,11.67,6.27,6.27,0,0,0,1,1.13c.29.27.58.49.59.5.67.61,1.23,2,2.15,2.85l.17.14c-.08-.64-.29-2.18-.42-3.15a.77.77,0,0,0-.07.16,9.37,9.37,0,0,1-.74-3.74c.5-4.72,2.16-9.87,5.27-13.28a11.26,11.26,0,0,1,10.25-3.75A49.46,49.46,0,0,1,75.76,25a4.15,4.15,0,0,0,.59-.53c.29-.31.6.29.9,1.13l1.11.45c-3-3.9-7.16-7.13-11.85-8C58.09,16.4,51.93,22.75,50.47,30.26Z"/><path class="cls-1" d="M75.49,21.44a18.48,18.48,0,0,0-5.62-3.51c-5.67-2.22-12-1.27-16.25,3.36A8.23,8.23,0,0,0,53,22c-3.86,5-5.15,14.91-1.87,19.79l.1.14a24.83,24.83,0,0,1-.79-11.67c1.46-7.51,7.62-13.86,16-12.23,4.69.9,8.85,4.13,11.85,8l.18.08A13,13,0,0,0,75.49,21.44Z"/><path class="cls-3" d="M82.84,12.89a11,11,0,0,1-7,2.31,49.58,49.58,0,0,0-29.67,7.86,31.73,31.73,0,0,0,4-.4L53,22a8.23,8.23,0,0,1,.59-.71c4.21-4.63,10.58-5.58,16.25-3.36,6-1.52,10-2.58,12.88-3.11.77-.14,1.45-.24,2.06-.31l-.6-.59A9.44,9.44,0,0,0,82.84,12.89Z"/><path class="cls-11" d="M77,11.5v-.09C71.51,9.9,66.52,6.83,61.28,7.35c-3.34.34-6.07,4.52-9.56,6.33-5.47,2.83-12.36,5.38-17.95,7.72-1.13.48-2.2.94-3.2,1.4-2.9,1.32-5.17,2.58-6.27,3.79a1.19,1.19,0,0,0-.24.4c12.28-1,18.63-10.68,36.52-13.94C63.84,12.4,76.53,13.86,77,11.5Z"/><path class="cls-7" d="M80.59,12.12l-.77-.1A22.62,22.62,0,0,1,77,11.41v.09c-.46,2.36-13.15.9-16.41,1.55C42.69,16.31,36.34,26,24.06,27a1.31,1.31,0,0,0-.08.53c1.23,1.07,2.15,2.33,5.05,2.89,3.42.67,6.62-.81,10.31-3.06a33.23,33.23,0,0,1,1.34-3.3c.66-.72,3-.85,5.45-1A49.58,49.58,0,0,1,75.8,15.2a11,11,0,0,0,7-2.31A5,5,0,0,0,80.59,12.12Z"/><path class="cls-3" d="M38.15,30.81c.41-1.29.82-2.47,1.19-3.46C35.65,29.6,32.45,31.08,29,30.41c-2.9-.56-3.82-1.82-5.05-2.89.07,1.84,3,5,5.41,9.27C35.08,37.73,36,34.81,38.15,30.81Z"/><path class="cls-5" d="M36.88,35.1c-1.58,2.65-3.93,6.09-5.54,6,.14.42.28.85.4,1.29,1.23.21,2.37.42,3.35.61a3.42,3.42,0,0,0,.4-1A53.18,53.18,0,0,1,36.88,35.1Z"/><path class="cls-4" d="M36.88,35.1c.4-1.51.83-3,1.27-4.29-2.18,4-3.07,6.92-8.76,6a27.45,27.45,0,0,1,1.95,4.28C33,41.19,35.3,37.75,36.88,35.1Z"/><path class="cls-5" d="M33.77,21.4a43.93,43.93,0,0,0,.57-12,14.16,14.16,0,0,1-.24,2.85C33,18,28.1,20.29,22.33,20.94c2.72.72,5.49,1.25,8.24,1.86C31.57,22.34,32.64,21.88,33.77,21.4Z"/><path class="cls-3" d="M31.64,10.5A10.36,10.36,0,0,0,31.81,9c-1.64.42-3.48.81-5.57,1.16a10.31,10.31,0,0,0-6.12,3.26,15.91,15.91,0,0,0-2.62,4.17C23.83,17.72,30.46,16.58,31.64,10.5Z"/><path class="cls-4" d="M34.34,9.35c0-.37-.07-.72-.1-1-.76.22-1.57.44-2.43.65a10.36,10.36,0,0,1-.17,1.54c-1.18,6.08-7.81,7.22-14.14,7.05-.23.51-.45,1-.66,1.55a40.21,40.21,0,0,0,5.49,1.84C28.1,20.29,33,18,34.1,12.2A14.16,14.16,0,0,0,34.34,9.35Z"/><path class="cls-3" d="M60.74,6.16a62.54,62.54,0,0,0,13.18.15c-.87-.93-1.71-1.89-2.49-2.9A30.43,30.43,0,0,1,69.22.16a.19.19,0,0,0-.06-.1c-.17-.15-.48,0-.57.12C65.25,3.5,60.78,5.31,56.17,6.23a54.46,54.46,0,0,1-16.79.33,55.17,55.17,0,0,1-5.54-.93s.21,1,.4,2.68c.09.85.18,1.88.23,3a13.94,13.94,0,0,0,4.26,1.59C50.05,15.12,56.71,5.38,60.74,6.16Z"/><path class="cls-5" d="M34.42,16.38a40.42,40.42,0,0,1-.65,5c5.59-2.34,12.48-4.89,17.95-7.72a13.88,13.88,0,0,0,1.45-.9c-5.57,2.53-12.08,5.46-16.23,4.66A6.59,6.59,0,0,1,34.42,16.38Z"/><path class="cls-4" d="M73.92,6.31a62.54,62.54,0,0,1-13.18-.15c-4-.78-10.69,9-22,6.77a13.94,13.94,0,0,1-4.26-1.59,45.31,45.31,0,0,1,0,5,6.59,6.59,0,0,0,2.52,1.06c4.15.8,10.66-2.13,16.23-4.66,2.83-2,5.24-5.14,8.11-5.43,4.26-.42,8.34,1.52,12.66,3.08a21.2,21.2,0,0,0,4.14,0C76.66,9.07,75.25,7.73,73.92,6.31Z"/><path class="cls-5" d="M73.94,10.43A30.93,30.93,0,0,0,79.82,12L78.08,10.4A21.2,21.2,0,0,1,73.94,10.43Z"/><path class="cls-5" d="M79.47,26.52l-.93-.38-1.29-.53a18.71,18.71,0,0,0,1.13,3.05,25.91,25.91,0,0,1,1.7,2,29.54,29.54,0,0,1,2.69,4.08,20.14,20.14,0,0,1,1.11-2.8A11.29,11.29,0,0,1,79.47,26.52Z"/><path class="cls-4" d="M79.47,26.52a11.29,11.29,0,0,0,4.41,5.38,14.21,14.21,0,0,1,1.68-2.68C84.84,28.82,82.32,27.71,79.47,26.52Z"/><path class="cls-9" d="M96.78,23.82c-1.76-2.56-3.22-5.1-5.46-7.14a7.08,7.08,0,0,0-6.51-2.17c-.61.07-1.29.17-2.06.31-1.8.34-4.07.89-7,1.63A18.9,18.9,0,0,0,87.7,24,21.73,21.73,0,0,0,96.78,23.82Z"/><path class="cls-3" d="M71.52,17.52l-1.65.41a17.5,17.5,0,0,1,3.29,1.72A23.12,23.12,0,0,1,71.52,17.52Z"/><path class="cls-6" d="M89.29,27.26c2.43-.75,5.18-1,7.74-2.16l.52-.18c-.26-.37-.52-.73-.77-1.1A21.73,21.73,0,0,1,87.7,24a18.9,18.9,0,0,1-12-7.58l-4.19,1.07a23.12,23.12,0,0,0,1.64,2.13,18.75,18.75,0,0,1,2.33,1.79,10.05,10.05,0,0,1,1.28,1.42,24.84,24.84,0,0,0,9.63,4A27.89,27.89,0,0,0,89.29,27.26Z"/><path class="cls-3" d="M86.4,26.86a24.84,24.84,0,0,1-9.63-4,20,20,0,0,1,1.77,3.28c3.25,1.33,6.29,2.66,7,3.1a9.54,9.54,0,0,1,3.71-2A27.89,27.89,0,0,1,86.4,26.86Z"/><path class="cls-1" d="M94.33,21.67A11.8,11.8,0,0,0,87,16.11c-2.83-.55-5.37.8-5.47,1.29A1.71,1.71,0,0,0,82,19.1c2.36,1.1,5.07,2.8,7.73,3.32A6.11,6.11,0,0,0,94.33,21.67Z"/><path class="cls-9" d="M68.05,9.63a9.49,9.49,0,0,0-2.15-.7c-5.12-1-7.89,2.9-6.62,3.14,3.17.62,11.85.22,12-.55a.45.45,0,0,0,0-.23C70.61,10.13,69.16,10,68.05,9.63Z"/><path class="cls-7" d="M37.46,8.16c8.18,1.15,11.23,0,11,1.31-.07.37-4.06,3.18-8.16,2.39a7.43,7.43,0,0,1-1.86-.63C37.55,10.68,37.43,9.31,37.46,8.16Z"/><path class="cls-7" d="M89.69,36c-.17-.16-.41-.3-.59-.46s-.3-.39-.11-.59.84-.37,1.15-.71a.91.91,0,0,0,.19-.82c-.45.57-1.38.74-1.48,1.22a13.45,13.45,0,0,1-.19,3,9.52,9.52,0,0,1-7.89,7.84c-1.36.23-1.83,1.44-2.54,2.62-.23-.33-.23-.74-1.38-1-.62-.12-2.55.72-3.86.79a25.47,25.47,0,0,0-3.93.22c1,.34,2,1.21,2.85.75,2.74-1.67,6.29.88,7.18-.1.44-.48.25-1.61.62-2,0,0,6.55-1.22,8.72-3.6a1.71,1.71,0,0,0,.11-.14C89.83,41.38,89.89,36.2,89.69,36Z"/><path class="cls-1" d="M76.85,47.17c1.15.22,1.15.63,1.38,1,.71-1.18,1.18-2.39,2.54-2.62a9.52,9.52,0,0,0,7.89-7.84,13.45,13.45,0,0,0,.19-3c.1-.48,1-.65,1.48-1.22,0-.25-.14-.52-.2-.8a2.2,2.2,0,0,0-1.26.6A23.91,23.91,0,0,1,85,39.73l-.15.17a21.19,21.19,0,0,1-7.51,5.27c-8.47,3.58-17.77,1.73-19.75,2.67l-.11-.12L56.09,48c.68.24,1.38.49,2.09.72h0c3.35-.15,6.71-.57,10.09-.66a1.85,1.85,0,0,1,.76.13A25.47,25.47,0,0,1,73,48C74.3,47.89,76.23,47.05,76.85,47.17Z"/><path class="cls-1" d="M58,38.08c.6-.85,1.88-1.36,2.6-2.3.68-.73.88-1.77,1.94-2.21,2.9-1.12,4.95-4.82,10.8-3.68,3.24.62,6.37,3.89,7.88,6.16l0-.38c0-.12,0-.23,0-.35a26.93,26.93,0,0,0-3-3.88,5.33,5.33,0,0,0-2.4-1.3c-4.72-1-.19-2.74-10.75.75-.5.19-.81.89-1.39,1.17a9.84,9.84,0,0,0-2.33,1.2,11.14,11.14,0,0,0-2,1.72c-2.13,2.33-3.41,5.47-4.74,8.42.13,1,.34,2.51.42,3.15l.18.12.14-.19A7.39,7.39,0,0,1,55.29,44,33.68,33.68,0,0,1,58,38.08Z"/><path class="cls-1" d="M69.72,26.55c2.32.24,4.57.89,6.17-1.28.57,1,.58,2.59,1.35,3.06a10.45,10.45,0,0,1,3.33,3.43c-.15-.37-.31-.75-.49-1.14a25.91,25.91,0,0,0-1.7-2,18.71,18.71,0,0,1-1.13-3.05c-.3-.84-.61-1.44-.9-1.13a4.15,4.15,0,0,1-.59.53c-2.48,1.85-6.26.27-7.28,1.39-.33.36-.52.89-.82,1.22a12.16,12.16,0,0,0-4.25,2.74,12.87,12.87,0,0,0-1.36,1.82C63.78,31.09,65.53,30,67.41,29,68.5,28.37,68.55,26.43,69.72,26.55Z"/><path class="cls-7" d="M77.24,28.33c-.77-.47-.78-2.09-1.35-3.06-1.6,2.17-3.85,1.52-6.17,1.28-1.17-.12-1.22,1.82-2.31,2.47-1.88,1-3.63,2.07-5.36,3.16-.22.35-.43.71-.62,1.08a9.84,9.84,0,0,1,2.33-1.2c.58-.28.89-1,1.39-1.17,10.56-3.49,6-1.77,10.75-.75a5.33,5.33,0,0,1,2.4,1.3,26.93,26.93,0,0,1,3,3.88c0,.12,0,.23,0,.35a7.53,7.53,0,0,0-.68-3.91A10.45,10.45,0,0,0,77.24,28.33Z"/><path class="cls-1" d="M80.57,31.76a7.53,7.53,0,0,1,.68,3.91,14.81,14.81,0,0,1-1.37,5.26l-.15.33a21.34,21.34,0,0,1-2.44,3.91,23,23,0,0,0,2.58-1.29A13.43,13.43,0,0,0,81.8,39.2,10.45,10.45,0,0,0,80.57,31.76Z"/><path class="cls-3" d="M83.76,36.65l0-.08a30.46,30.46,0,0,0-3.64-5.95c.18.39.34.77.49,1.14A10.45,10.45,0,0,1,81.8,39.2a13.43,13.43,0,0,1-1.93,4.68,20.06,20.06,0,0,0,3-2.14,8.42,8.42,0,0,0,.91-2.46A6.33,6.33,0,0,0,83.76,36.65Z"/><path class="cls-5" d="M85,39.73a25.93,25.93,0,0,0-1.19-3.08,6.33,6.33,0,0,1,0,2.63,8.42,8.42,0,0,1-.91,2.46A20.6,20.6,0,0,0,84.8,39.9Z"/><path class="cls-4" d="M71.28,31.83a4.5,4.5,0,0,0-2.9.75c-.66.27-1-.63-1.31,1.21-.15.77-.18,1.55-.33,2.3a4.59,4.59,0,0,1-.38,1.19c.49.29.9.42,1.34.67a5.19,5.19,0,0,1,.77-1.27c.17-.19.55-.16,1,0a2.53,2.53,0,0,1,.33-.44,3.29,3.29,0,0,1,1.7-.57,6.65,6.65,0,0,1,.92-1.4,3.16,3.16,0,0,1,.68-.56C72.6,32.86,72.31,32,71.28,31.83Z"/><path class="cls-1" d="M72.87,31.83c-.54-.5-1.46-.73-1.76-.4a.24.24,0,0,0-.07.12c-1.31-.7-2.31-.32-3.28.75a.64.64,0,0,0-.81.14c-.68.74-.76,2.56-1.1,4.51a4,4,0,0,0,.51.33,4.59,4.59,0,0,0,.38-1.19c.15-.75.18-1.53.33-2.3.35-1.84.65-.94,1.31-1.21a4.5,4.5,0,0,1,2.9-.75c1,.2,1.32,1,1.77,1.85a2.62,2.62,0,0,1,.68-.29A3.15,3.15,0,0,0,72.87,31.83Z"/><path class="cls-1" d="M72.11,35.11a1.86,1.86,0,0,1,1.78-1c1,.18,2.59,3.87,2.93,4.68a5.86,5.86,0,0,1,3-.69,1.65,1.65,0,0,1,.59.23c.29-.43.53-1,.25-1.21-.65-.58-2.48,1-3.87,1.56h0c-.32-1.17-.69-2.49-1-3.51a5.66,5.66,0,0,0-.71-1.65,1.49,1.49,0,0,0-1.32-.15,2.86,2.86,0,0,0-1.36.85,6.65,6.65,0,0,0-.92,1.4,3.29,3.29,0,0,0-1.7.57,2.53,2.53,0,0,0-.33.44,4.6,4.6,0,0,1,.68.31C70.77,36.48,71.65,36.17,72.11,35.11Z"/><path class="cls-5" d="M73.63,37.74a3.12,3.12,0,0,0-2.3.76,4,4,0,0,1,.08,2l.28.18.2.12c.53.31,1-.89,1.5-.75a6.42,6.42,0,0,0,3.1.5C75.7,39.22,74.76,38,73.63,37.74Z"/><path class="cls-4" d="M79.82,38.12a5.86,5.86,0,0,0-3,.69c-.34-.81-2-4.5-2.93-4.68a1.86,1.86,0,0,0-1.78,1c-.46,1.06-1.34,1.37-2,1.85a3.46,3.46,0,0,1,.49.34l.07.08a3.19,3.19,0,0,1,.33.4,2.64,2.64,0,0,1,.34.72,3.12,3.12,0,0,1,2.3-.76c1.13.22,2.07,1.48,2.86,2.78.25,0,.49-.06.73-.11h.06a5.26,5.26,0,0,0,2.5-1.31,2.18,2.18,0,0,0,.21-.22,4.27,4.27,0,0,0,.42-.52A1.65,1.65,0,0,0,79.82,38.12Z"/><path class="cls-3" d="M69.12,37.74c.53.1,1.38.66,1.59,2.28l.7.45A3.55,3.55,0,0,0,71,37.78a3.19,3.19,0,0,0-.33-.4l-.07-.08a3.84,3.84,0,0,0-1.17-.65c-.4-.13-.78-.16-1,0A5.19,5.19,0,0,0,67.7,38l0,.07.34.21A1.1,1.1,0,0,1,69.12,37.74Z"/><path class="cls-5" d="M69.12,37.74a1.1,1.1,0,0,0-1.11.49l.42.25c.77.5,1.53,1,2.28,1.54C70.5,38.4,69.65,37.84,69.12,37.74Z"/><path class="cls-7" d="M68.05,44.31c3.44.66,7.54-1.15,10.06-3.82a17.93,17.93,0,0,1-4.3.4c-.56,0-1.3,1-2,.81A30.71,30.71,0,0,0,66.08,38,5,5,0,0,1,64,36.06a4.55,4.55,0,0,1,0,.48,1.36,1.36,0,0,1,0,.18h0v.06h0a15.09,15.09,0,0,1-1.16,3A7.5,7.5,0,0,0,68.05,44.31Z"/><path class="cls-17" d="M77.28,40.4h-.06A6.42,6.42,0,0,1,73.39,40c-.52-.14-1,1.06-1.5.75l-.2-.12-.28-.18c-1-.62-2-1.34-3-2L67.67,38l0-.07a12,12,0,0,1-1.85-1,5.63,5.63,0,0,1-1.72-2A.13.13,0,0,0,64,35a4.09,4.09,0,0,0,0,1.09A5,5,0,0,0,66.08,38a30.71,30.71,0,0,1,5.7,3.71c.73.14,1.47-.81,2-.81a17.93,17.93,0,0,0,4.3-.4c.18-.19.35-.38.52-.58A5.9,5.9,0,0,1,77.28,40.4Z"/><path class="cls-17" d="M78.63,39.91c-.17.2-.34.39-.52.58a4.42,4.42,0,0,0,1.78-.81c0-.2-.07-.39-.11-.59A4.91,4.91,0,0,1,78.63,39.91Z"/><path class="cls-3" d="M79.89,39.68a4.42,4.42,0,0,1-1.78.81c-2.52,2.67-6.62,4.48-10.06,3.82a7.5,7.5,0,0,1-5.19-4.5c-1,2.08-2,4.15-1.11,7,1-.19,2-.37,3.11-.52a20.63,20.63,0,0,0,14.87-5.06l.15-.33A2.93,2.93,0,0,0,79.89,39.68Z"/><path class="cls-4" d="M81.22,36.05c-1.51-2.27-4.64-5.54-7.88-6.16-5.85-1.14-7.9,2.56-10.8,3.68-1.06.44-1.26,1.48-1.94,2.21-.72.94-2,1.45-2.6,2.3A33.68,33.68,0,0,0,55.29,44a7.39,7.39,0,0,0,.18,2.47,55.67,55.67,0,0,1,4.85-6c1.14-1.24,2.31-2.46,3.47-3.68l.24-.25a4.55,4.55,0,0,0,0-.48A4.09,4.09,0,0,1,64,35a.13.13,0,0,1,.13,0,5.63,5.63,0,0,0,1.72,2c.34-2,.42-3.77,1.1-4.51a.64.64,0,0,1,.81-.14c1-1.07,2-1.45,3.28-.75a.24.24,0,0,1,.07-.12c.3-.33,1.22-.1,1.76.4a3.15,3.15,0,0,1,.86,1.56,1.49,1.49,0,0,1,1.32.15,5.66,5.66,0,0,1,.71,1.65c.34,1,.71,2.34,1,3.51h0c1.39-.51,3.22-2.14,3.87-1.56.41.38-.29,1.32-.67,1.73a2.18,2.18,0,0,1-.21.22c0,.2.08.39.11.59a3.66,3.66,0,0,0,1-1.87A13.68,13.68,0,0,0,81.22,36.05Z"/><path class="cls-5" d="M79.89,39.68a2.93,2.93,0,0,1,0,1.25,16,16,0,0,0,1.06-3.12A3.66,3.66,0,0,1,79.89,39.68Z"/><path class="cls-7" d="M72,25.09a10.43,10.43,0,0,1,2,.71A4.62,4.62,0,0,0,75.76,25a49.46,49.46,0,0,0-6.32-2.22,11.26,11.26,0,0,0-10.25,3.75C56.08,30,54.42,35.1,53.92,39.82a9.37,9.37,0,0,0,.74,3.74.77.77,0,0,1,.07-.16l1.1-2.46c.06-.41.13-.81.21-1.22C58.2,28.53,66.91,24.1,72,25.09Z"/><path class="cls-4" d="M72,25.09C66.91,24.1,58.2,28.53,56,39.72c-.08.41-.15.81-.21,1.22a23.16,23.16,0,0,1,3.64-6,11.14,11.14,0,0,1,2-1.72,14.57,14.57,0,0,1,2-2.9,12.16,12.16,0,0,1,4.25-2.74c.3-.33.49-.86.82-1.22.79-.88,3.26-.11,5.49-.6A10.43,10.43,0,0,0,72,25.09Z"/><path class="cls-3" d="M107,22.34c.68.13,1.33.22,2,.28-1.94-6-2-8.53-6.85-12.91C99,6.88,89.26,1.46,85.94,1A17.05,17.05,0,0,0,80.1,1C83.45,11.79,95.81,20.18,107,22.34Z"/><path class="cls-5" d="M75.55,2.16c-1.37.41-2.74.85-4.12,1.25A72.63,72.63,0,0,0,79.82,12l.77.1a5.23,5.23,0,0,1,2.23.75A78.69,78.69,0,0,1,75.55,2.16Z"/><path class="cls-4" d="M110.49,26.87c-.64-1.6-1.13-3-1.54-4.25-.64-.06-1.29-.15-2-.28C95.81,20.18,83.45,11.79,80.1,1a38.7,38.7,0,0,0-4.55,1.12,78.69,78.69,0,0,0,7.27,10.71,9.22,9.22,0,0,1,1.39,1.05l.6.59a7.08,7.08,0,0,1,6.51,2.17A24.2,24.2,0,0,1,94.89,21a20.38,20.38,0,0,1,4.17,1.58,82.26,82.26,0,0,0,9.8,4A12.31,12.31,0,0,1,110.49,26.87Z"/><path class="cls-5" d="M94.89,21c.87,1.27,1.71,2.6,2.66,3.92,2.6-.79,3.87.55,5.61,1.15a32.79,32.79,0,0,0,5.7.55,82.26,82.26,0,0,1-9.8-4A20.38,20.38,0,0,0,94.89,21Z"/><path class="cls-7" d="M98.3,9.1a19.46,19.46,0,0,0-8.61-4.61c-3.29-.64-3.36,0-3.49.61s7.19,12,15.38,13.56c3.08.6,3.39.24,3.58-.76a1.28,1.28,0,0,0,0-.75A21.11,21.11,0,0,0,98.3,9.1Z"/><path class="cls-18" d="M85.64,111.83c7.09,0,18-.87,23.45-5.36.66-.53,1.48-1.2,2.4-2a21.83,21.83,0,0,0-2.35-.59C100.72,102.27,91.81,105.63,85.64,111.83Z"/><path class="cls-9" d="M127,80c-5.32,4.56-9.37,11-12.41,18.16-2.16,3.83-5.81,3.27-10.11,2.44-1-.19-1.94-.4-2.91-.58-10.85-2.1-18.45,3.78-19.32,8.3a5.55,5.55,0,0,0,.41,3.43c.88,0,1.9,0,3,0,6.17-6.2,15.08-9.56,23.5-7.93a21.83,21.83,0,0,1,2.35.59c5.37-4.57,14.18-13,15.3-18.74A19.75,19.75,0,0,0,127,80Z"/><path class="cls-18" d="M124.7,84.62a22.74,22.74,0,0,0-6.51,10.83c4-1.5,6.51-6.42,7.3-10.53,0-.14-.1-.2-.27-.23S124.83,84.65,124.7,84.62Z"/><path class="cls-1" d="M119.56,48.38A16.46,16.46,0,0,0,118,52.91c-.93,4.82.59,9.88,1.62,10.08.62.12,1.42-.69,1.53-1.28s.51-16.68-.5-16.88c-.53-.1-.58.14-.67.58-.15.8-.12,1.69-.28,2.49A4.21,4.21,0,0,1,119.56,48.38Z"/><path class="cls-1" d="M114.89,39.26a1.49,1.49,0,0,1-.42,0c-1.74-.33-3.13-4.06-5.61-4.54-1-.2-2.33.17-2.44.75a.39.39,0,0,0,.11.34c2.53,3.41,7,4.54,10.93,6A15.11,15.11,0,0,1,114.89,39.26Z"/><path class="cls-9" d="M40.23,114a14.41,14.41,0,0,1-3.16-.26c-5.26-1-7.28-4.12-8.73-4.4-.53-.1-.91,0-1,.55-.63,3.24.74,7,4.83,7.82,3.84.74,8.2-1.55,8.41-2.61A1.21,1.21,0,0,0,40.23,114Z"/><path class="cls-1" d="M65.57,109c-3.81-4.33-14.54-8.37-15-8.46s-2,.19-2.17,1.28c-.81,4.2,15.11,8.72,16.79,9.23Z"/><path class="cls-1" d="M34.51,85.65c.83,2.28,1.46,4.52,3.46,6.18a1.4,1.4,0,0,0,.48.22c.75.14,1-.58,1.11-1.35.11-.59-2-5.87-5.56-7.91a.07.07,0,0,0-.06,0c-.12,0-.28.27-.34.58a1.13,1.13,0,0,0,0,.45A11.66,11.66,0,0,0,34.51,85.65Z"/><path class="cls-1" d="M95.11,76.79c-18.58,9.55,2.63,6,3.71.46A1.06,1.06,0,0,0,98,75.91a1.57,1.57,0,0,0-.65,0A7.54,7.54,0,0,0,95.11,76.79Z"/><path class="cls-1" d="M105.71,51.47a46.42,46.42,0,0,0-1,7s0,0,0,.05c.89.17,3.63-2.48,4.06-4.65.19-1-.06-2.42-1.11-2.62A4.16,4.16,0,0,0,105.71,51.47Z"/><path class="cls-1" d="M104.61,60.23c-2.12,2.2-4.85,4.4-5.43,7.37,0,.09-.17,1.87-.52,3.71-.71,3.66-.87,3.13-.12,3.27,2.53-1.71,2.93-8.29,5.69-12.36a4.78,4.78,0,0,0,.75-1.54,2.22,2.22,0,0,0,0-.37Z"/></g></g></g></svg>