<svg xmlns="http://www.w3.org/2000/svg" viewBox="0 0 129.31 121.29"><defs><style>.cls-1{fill:#e6f5fb;}.cls-2{fill:#fbf3f3;}.cls-3{fill:#5699c0;}.cls-4{fill:#375a7a;}.cls-5{fill:#1f3751;}.cls-6{fill:#91c5e0;}.cls-7{fill:#79afd5;}.cls-8{fill:#f2dddf;}.cls-9{fill:#bae5fa;}.cls-10{fill:#efd2d6;}.cls-11{fill:#99cced;}.cls-12{fill:#fffdfd;}.cls-13{fill:#e7c1c5;}.cls-14{fill:#46779a;}.cls-15{fill:#6ea4d2;}.cls-16{fill:#e9c6c7;}.cls-17{fill:#fff;}.cls-18{fill:#d1edfa;}</style></defs><g id="Layer_2" data-name="Layer 2"><g id="PRINT_2" data-name="PRINT 2"><g id="bunga_atas" data-name="bunga atas"><path class="cls-1" d="M17.85,74.46c.16,8,5.74,16.57,13.66,18.1,15.34,3,36.46-3.21,51-5.87,3.72-.69,7.9-4.1,8.59-7.65a6.93,6.93,0,0,0-1.53-5.82c-17.69-20.69-16-40.56-27.67-42.81-17-3.3-40,22.86-43.26,39.42C18.38,71.34,18.16,72.87,17.85,74.46Z"/><path class="cls-2" d="M53.55,86.1a6,6,0,0,0,.71,1.65,1.49,1.49,0,0,0,1.32.15A2.85,2.85,0,0,0,57,87.05a6.37,6.37,0,0,0,.91-1.4,3.46,3.46,0,0,1-2.56-.37,3.83,3.83,0,0,1-.82-1.39A4.88,4.88,0,0,0,53.55,86.1Z"/><path class="cls-3" d="M72.13,73.82c.83.75,1.25.46,1.85.8a2.27,2.27,0,0,1,.36.26c.92.84,1.47,2.24,2.14,2.85,0,0,.3.23.6.5a6.92,6.92,0,0,1,1.07,1.27A16.93,16.93,0,0,1,80,76.08c-1.68-.79-3.52-1.56-5.49-2.3l-1.3-.48-1.35.27C72,73.66,72.05,73.74,72.13,73.82Z"/><path class="cls-2" d="M71.09,72.56v0h0Z"/><path class="cls-1" d="M86.08,83.18c1.07,1,3.17,2.06,3.39,1.82a2.39,2.39,0,0,0,.39-1.06c-.8-1.14-1.56-2.24-2.22-3.35A25.37,25.37,0,0,0,84,78.14,6.13,6.13,0,0,0,86.08,83.18Z"/><path class="cls-4" d="M73.14,115.06c8.17,3.89,10.28,2.18,16.8-.33A55.16,55.16,0,0,0,73.14,115.06Z"/><path class="cls-1" d="M40.44,88.05a2.17,2.17,0,0,1-1.25.6,1.63,1.63,0,0,1,0,.82c-.05.06,0,.16.12.26,1.17,1.06,3.34-.82,4.2-1.77a16.11,16.11,0,0,0,2.06-3.24,26.42,26.42,0,0,1-1.23-3.16A24.21,24.21,0,0,0,40.44,88.05Z"/><path class="cls-5" d="M49.59,80A20.62,20.62,0,0,1,64.46,75c1.06-.15,2.09-.33,3.1-.52,1.46-.28,2.89-.59,4.32-.88l-.11-.12c-2,1-11.28-.91-19.75,2.67A21.29,21.29,0,0,0,49.59,80Z"/><path class="cls-2" d="M48.66,84.15c.64.59,2.47-1.05,3.86-1.56a16,16,0,0,0-.48-1.7,5.24,5.24,0,0,0-2.51,1.31l-.21.22C48.94,82.83,48.25,83.78,48.66,84.15Z"/><path class="cls-2" d="M58.32,83.51a3.54,3.54,0,0,1-.41-2.69l-.29-.18a12.67,12.67,0,0,0-2.21,2.1A2.86,2.86,0,0,0,58.32,83.51Z"/><path class="cls-2" d="M58.66,83.91a2.57,2.57,0,0,1-.34-.4,2.86,2.86,0,0,1-2.91-.77l0,0a10.17,10.17,0,0,0-.9,1.11,3.83,3.83,0,0,0,.82,1.39,3.46,3.46,0,0,0,2.56.37,3.4,3.4,0,0,0,1.7-.56,3.07,3.07,0,0,0,.33-.45A3.66,3.66,0,0,1,58.73,84Z"/><path class="cls-2" d="M52.52,82.59h0c.31,1.17.68,2.49,1,3.51a4.88,4.88,0,0,1,.93-2.21,10.17,10.17,0,0,1,.9-1.11l0,0a12.67,12.67,0,0,1,2.21-2.1l-.2-.12c-.52-.31-1,.9-1.49.75a6.46,6.46,0,0,0-3.84-.39H52A16,16,0,0,1,52.52,82.59Z"/><path class="cls-2" d="M52,80.89Z"/><path class="cls-5" d="M65.29,84.5s0,0,0,.07v.19a3.07,3.07,0,0,1,.25-.26c1.16-1.22,2.32-2.43,3.46-3.68a54.6,54.6,0,0,0,5-6.2c-.6-.34-1-.05-1.85-.8-.08-.08-.17-.16-.25-.25-1.43.29-2.86.6-4.32.88C68.83,78.67,66.09,81.15,65.29,84.5Z"/><path class="cls-2" d="M65.28,84.57s0,0,0-.07h0v.06Z"/><path class="cls-3" d="M85.26,69.4c-.08-1-.2-1.93-.28-2.86-.93-1.05-2.06-2.42-3.45-4.11A19.61,19.61,0,0,1,85.26,69.4Z"/><path class="cls-6" d="M70.6,67.45l1,.18a10,10,0,0,1,1.9.53c.3,0,.18.64.48.7,4.77.92,8,4.33,10.49,8.26-.82-3.56-2.14-7.17-3.07-10.64-1.76-5.19-11.5-15.31-16.45-16.27-7.34-1.42-12.34,5.5-15.86,10.51A12.15,12.15,0,0,1,55.81,60C62.22,61.25,66.44,66.64,70.6,67.45Z"/><path class="cls-3" d="M74,68.86c-.3-.06-.18-.65-.48-.7a10,10,0,0,0-1.9-.53l-1-.18c-4.16-.81-8.38-6.2-14.79-7.44a12.15,12.15,0,0,0-6.73.71c-.42.59-.81,1.15-1.19,1.67,6.59-1.54,14-.21,16,1.61,1.11,1,1.95,2.32,3,3.32,1.62,1.47,3.25.3,5,1.14,1,.46,1.77,1.45,2.71,1.66a13.17,13.17,0,0,1,6.79,3.74,32.59,32.59,0,0,1,3,3.31v0C82,73.19,78.74,69.78,74,68.86Z"/><path class="cls-3" d="M37.12,66l-.22.32c.5-.11,1-.2,1.49-.29.49-.34,1-.67,1.43-1C39,65.36,38.06,65.69,37.12,66Z"/><path class="cls-3" d="M39.82,65c-.46.34-.94.67-1.43,1A9.31,9.31,0,0,0,42,64.84l.1-.06c0-.07.09-.14.14-.2s-.09.13-.14.2a18.17,18.17,0,0,1,5.79-2.39c.38-.52.77-1.08,1.19-1.67C46.17,61.78,43.28,63.57,39.82,65Z"/><path class="cls-7" d="M49.08,60.72c3.52-5,8.52-11.93,15.86-10.51,5,1,14.69,11.08,16.45,16.27.93,3.47,2.25,7.08,3.07,10.64l.09.15a29.74,29.74,0,0,0,2.68,2.93l.38.33a14.35,14.35,0,0,1-2.33-9.2,12.54,12.54,0,0,0,0-1.93,19.61,19.61,0,0,0-3.73-7l-1.1-1.35c-2.9-3.4-6.74-7-11-11.41a9.29,9.29,0,0,0-5-3,9.1,9.1,0,0,0-6.87,1l-1.36,1c-4,3.3-7.41,9.79-16.42,16.31C43.28,63.57,46.17,61.78,49.08,60.72Z"/><path class="cls-8" d="M84.47,77.17l.08.1-.09-.15Z"/><path class="cls-9" d="M56,56.17a10.58,10.58,0,0,1,9.77-3.27C72.84,54.27,79,66.48,73.33,65.38c0,0-5.65-4.43-16.94-6.91a2.26,2.26,0,0,1-.87-1.7A1,1,0,0,1,56,56.17Z"/><path class="cls-9" d="M36.81,68.08c1.35-2.22,2.37-.85,4.63-2.38A20.21,20.21,0,0,1,55.6,63.26c6,1.17,11.91,5.79,12,5.81,1.06.21,2.2-.15,3.26.05a55,55,0,0,1,11.46,5.59c-.28-.3-.57-.58-.86-.85a13.17,13.17,0,0,0-6.79-3.74c-.94-.21-1.67-1.2-2.71-1.66-1.79-.84-3.42.33-5-1.14-1.09-1-1.93-2.31-3-3.32-2.63-2.4-14.62-3.94-21.8.78l-.1.06c-1.41,1-3.29,1-5.1,1.46-.45.68-.87,1.34-1.24,2Z"/><path class="cls-6" d="M36.78,87.19a9.17,9.17,0,0,0,1.26,1l-.18.46a3.74,3.74,0,0,0,1.33,0c-.14-.6-.43-1.16,0-1.62s.88-.41,1.15-.7.08-.41-.12-.6-.41-.3-.58-.45a8,8,0,0,1,0-2.35c-2.46-2.27-4.53-5.2-3.83-8.8a12.6,12.6,0,0,1,4-6.41,37,37,0,0,0-4.13.57C30.87,76.7,32.66,83.43,36.78,87.19Z"/><path class="cls-5" d="M40.37,78.94a3.48,3.48,0,0,1,.4-.72c.17-2.1-1.13-6.54,0-10.57l-.59,0a10.07,10.07,0,0,0-1.25,3.25A12,12,0,0,0,40.37,78.94Z"/><path class="cls-3" d="M35.76,74.13c-.7,3.6,1.37,6.53,3.83,8.8a13.59,13.59,0,0,1,.78-4,12,12,0,0,1-1.45-8,10.07,10.07,0,0,1,1.25-3.25l-.38,0A12.6,12.6,0,0,0,35.76,74.13Z"/><path class="cls-4" d="M40.77,78.22l.12-.14A5.87,5.87,0,0,1,42.31,77a5.71,5.71,0,0,1-.14-2.81c1-5.44,7.75-6.18,13.36-5.09A28.76,28.76,0,0,1,65,73c2-.16,4.09-.35,6.13-.44v0c-9.51-3.18-21-5.47-30.33-4.91C39.64,71.68,40.94,76.12,40.77,78.22Z"/><path class="cls-3" d="M42.17,74.17A5.71,5.71,0,0,0,42.31,77a27.23,27.23,0,0,1,7.29-2.5c.37-.41.18-1.54.62-2,.9-1,4.44,1.57,7.19-.1,1.13-.57,2.35.94,3.61.88S63.66,73.12,65,73a28.76,28.76,0,0,0-9.44-3.94C49.92,68,43.22,68.73,42.17,74.17Z"/><path class="cls-9" d="M59.42,43.24C59,45.6,49.27,50.9,40.17,60.68c-1.16,1.34-7.81,5.76-9.59,15-1,5.11.22,10.22,5.49,13.42a1.11,1.11,0,0,1,.45,1.38,1.39,1.39,0,0,0,.55-.34,4.65,4.65,0,0,0,.79-1.51l.18-.46a9.17,9.17,0,0,1-1.26-1c-4.12-3.76-5.91-10.49-1.12-18.9.37-.65.79-1.31,1.24-2a41.16,41.16,0,0,1,3.66-4.62c4.2-4.61,15-12.86,24.23-18.88a1.15,1.15,0,0,0-.44-.26c-.16,0-.34,0-.5-.06a6.61,6.61,0,0,0-3.18-1.79,14.54,14.54,0,0,0-2.32-.25A2.84,2.84,0,0,1,59.42,43.24Z"/><path class="cls-7" d="M23.5,82a4.89,4.89,0,0,1,.62.49c1.55,1.41,2.41,3.56,3.74,4.94l.26.25a11.15,11.15,0,0,0,2.08,1.24c-2-1.64-3.29-4.05-5.35-6.47a4.48,4.48,0,0,1-.64-3.59c.16-.8,7.37-19.58,7.69-20.31s2.06-.74,3.31-1.27,1.49-1.75,2.47-2.2c8.73-4.4,12.47-14.94,18.59-13.76,1.87.36,2.74,1.17,3.09,2.11a.89.89,0,0,0,.06-.2,2.84,2.84,0,0,0-1.07-2.8h-.08c-9.09-.14-15.05,9.09-17.42,12.11-.6.77-1.82,1-3.07,1.27,0,0,0,.07,0,.1A20.46,20.46,0,0,0,33,57.13c-.46.5-1.57.59-1.89.94l-.06.09C30.65,60,27.5,66.7,25.28,72.57,23.59,77.05,22.45,81.05,23.5,82Z"/><path class="cls-10" d="M64.2,42.88l.37-.24h0Z"/><path class="cls-10" d="M64.84,42.43h0l-.28.2h0Z"/><path class="cls-10" d="M64.84,42.43l.33-.25-.34.25Z"/><path class="cls-4" d="M52.59,41.6a13.84,13.84,0,0,1,5.68-1.16,6.26,6.26,0,0,0-1.1-.32c-1.88-.37-3.92.05-5.86.2a5.65,5.65,0,0,1-.92,0,1.23,1.23,0,0,1,0,.27c-1,.18-2,.36-3,.59a17.61,17.61,0,0,1,4.93.37Z"/><path class="cls-5" d="M38.79,53.61c2.07-2.84,1.36-8.48,4.77-11.09a10.17,10.17,0,0,0-3,2.24c-2.74,3-2.35,6.15-2.83,9.06C38.12,53.75,38.46,53.69,38.79,53.61Z"/><path class="cls-3" d="M40,53.22a2.43,2.43,0,0,0,.89-.67c1.64-2.09,5-7.14,9.92-10C43.23,41.72,44.75,48.35,40,53.22Z"/><path class="cls-4" d="M40,53.22c4.79-4.87,3.27-11.5,10.81-10.69a16.38,16.38,0,0,1,1.82-.93l-.27-.05a17.61,17.61,0,0,0-4.93-.37,15.55,15.55,0,0,0-3.83,1.34c-3.41,2.61-2.7,8.25-4.77,11.09A6.42,6.42,0,0,0,40,53.22Z"/><path class="cls-5" d="M50,39.53a1.31,1.31,0,0,1,.38.79,5.65,5.65,0,0,0,.92,0c1.94-.15,4-.57,5.86-.2a6.26,6.26,0,0,1,1.1.32,13.4,13.4,0,0,1,2.4.25,6,6,0,0,1,2.4,1.11,8.73,8.73,0,0,0-5.16-3C55.79,38.34,53.3,39.12,50,39.53Z"/><path class="cls-4" d="M48.79,38.66a6.79,6.79,0,0,1,1.22.87c3.29-.41,5.78-1.19,7.9-.77a8.73,8.73,0,0,1,5.16,3,6.66,6.66,0,0,1,.78.68c.16,0,.34,0,.5.06a.88.88,0,0,1,.2.09l.28-.2C62.46,40,58.24,36.62,52.89,35.8a17.2,17.2,0,0,0-5.24.58A6.61,6.61,0,0,1,48.79,38.66Z"/><path class="cls-4" d="M27.45,67.17c1.47-3.52,2.88-6.73,3.41-8.36a15.12,15.12,0,0,0-3.22,6.25A12.63,12.63,0,0,0,27.45,67.17Z"/><path class="cls-4" d="M35.75,50c-.16.85-.17,1.74-.32,2.55-.27,1.41-2,3.13-3.71,5.22A3.21,3.21,0,0,0,33,57.13a20.46,20.46,0,0,1,4.78-3.21c.5-2.93.07-6.12,2.84-9.16s6.22-3.54,9.76-4.17a1.44,1.44,0,0,0-.75-1.4C43.23,41.27,36.19,47.71,35.75,50Z"/><path class="cls-3" d="M25.88,66.85a11,11,0,0,0-.07,4.35c.53-1.34,1.09-2.71,1.64-4a12.63,12.63,0,0,1,.19-2.11,15.12,15.12,0,0,1,3.22-6.25c.08-.25.14-.47.18-.65l.06-.09a1.55,1.55,0,0,1,.62-.32c1.75-2.09,3.44-3.81,3.71-5.22.15-.81.16-1.7.32-2.55.44-2.27,7.48-8.71,13.87-10.79-.37-.28-.75-.46-.83-.53a6.29,6.29,0,0,0-1.65-2.83c-.47-.42-1.38-1.18-2.17-.87a5,5,0,0,1-.62.36c1,.76,1.63,1.3,1.36,2.71-1.08,5.58-11.92,7.63-12.52,10.76-.17.88.33,2.65.06,4.06C32.85,54.94,27.08,60.67,25.88,66.85Z"/><path class="cls-6" d="M17.92,72.27c.2.19,1,.33,1.19.09a4,4,0,0,1,.54-.21c-2.15-.5-2.52-1.63-2.2-3.29,1.25-6.46,8.77-8.25,10.35-16.39.32-1.63.48-3.33.8-5,1.67-8.65,8.07-9.36,13.87-11.62a12.22,12.22,0,0,1-2.26,0c-2.69-.2-5.67-.57-9.23,3.34-4.24,4.65-1.66,6.66-3.55,9.08-2.29,2.92-2.75,6.31-4.28,9.53C21.15,62.45,12.78,67.59,17.92,72.27Z"/><path class="cls-9" d="M28.6,47.48c-.32,1.66-.48,3.36-.8,5-1.58,8.14-9.1,9.93-10.35,16.39-.32,1.66.05,2.79,2.2,3.29a8.41,8.41,0,0,1,5.63.42c.17-.45.35-.91.53-1.37a11,11,0,0,1,.07-4.35c1.2-6.18,7-11.91,7.37-14,.27-1.41-.23-3.18-.06-4.06.6-3.13,11.44-5.18,12.52-10.76.27-1.41-.34-2-1.36-2.71a4.79,4.79,0,0,1-1,.38,5.91,5.91,0,0,1-.92.16C36.67,38.12,30.27,38.83,28.6,47.48Z"/><path class="cls-7" d="M15,73.58c.23,3.3,4.71,4.19,8.14,6.13a19.88,19.88,0,0,1,.68-3,16.11,16.11,0,0,1-1-2.68c-.41-1.44-1.8-1.53-3-2a5,5,0,0,0-.7.26c-.22.24-1,.1-1.19-.09-2.88-2.62-1.52-5.38.58-8.13.38-1.36.8-2.71,1.06-4.09.67-3.41-.1-4,.22-5.69.67-3.45,4.8-4.9,5.7-7.09,2.28-9.22,8.43-10,9.08-13.37a3,3,0,0,0,0-1.19,12.92,12.92,0,0,0-7.12.33l-.42.18A5.13,5.13,0,0,1,27.52,37C25.5,47.46,16,48.1,15.26,52,15.26,52,15,72.63,15,73.58Z"/><path class="cls-5" d="M24.14,73.3a19,19,0,0,1-.32,3.39l0,.06c.38-1.28.87-2.7,1.43-4.18a11.51,11.51,0,0,0-3.59-.75C22.76,72.28,24.07,72,24.14,73.3Z"/><path class="cls-4" d="M22.85,74.07a17.29,17.29,0,0,0,1,2.62,19,19,0,0,0,.32-3.39c-.07-1.31-1.38-1-2.45-1.48a6.21,6.21,0,0,0-1.88.28C21.05,72.54,22.44,72.63,22.85,74.07Z"/><path class="cls-3" d="M19.78,54.36c-.32,1.65.45,2.28-.22,5.69-.26,1.38-.68,2.73-1.06,4.09,1.15-1.5,2.52-3,3.55-4.45.31-2,.06-3.09.37-4.69.63-3.25,3.5-4,3.94-6.22,0,0,.08-.71.19-1.28a14.34,14.34,0,0,1,2.51-5.63,13.85,13.85,0,0,1,4.38-4.82c1.23-1.19,2.49-2.36,3.65-3.61l0,0c-.85-.27-1.7-.5-2.55-.68a3,3,0,0,1,0,1.19c-.65,3.4-6.8,4.15-9.08,13.37C24.58,49.46,20.45,50.91,19.78,54.36Z"/><path class="cls-5" d="M26.36,48.78c-.44,2.24-3.31,3-3.94,6.22-.31,1.6-.06,2.64-.37,4.69a10.1,10.1,0,0,0,1.1-1.9c1.53-3.22,2-6.61,4.28-9.53,1.48-1.89.22-3.54,1.63-6.39a14.34,14.34,0,0,0-2.51,5.63C26.44,48.07,26.36,48.76,26.36,48.78Z"/><path class="cls-4" d="M33.44,37.05c2.51-1.61,4.73-1.36,6.77-1.21-.09-.51-.2-1-.3-1.47-.92-.34-1.85-.68-2.78-1l0,0C35.93,34.69,34.67,35.86,33.44,37.05Z"/><path class="cls-6" d="M12,53.44a5.94,5.94,0,0,0,0,2.48c1.84,6.27.48,12.31.53,19,0,5.07,13.09,5.37,11.63,12.9-.21,1.07-4.57.32-5.42.15h-.07a9.53,9.53,0,0,0,9.13-.52c-1.33-1.38-2.19-3.53-3.74-4.94A4.89,4.89,0,0,0,23.5,82c-.4-.37-.48-1.19-.33-2.3-3.43-1.94-7.91-2.83-8.14-6.13,0-1,.23-21.59.23-21.59C16,48.1,25.5,47.46,27.52,37A5.13,5.13,0,0,0,27,33.22a19.49,19.49,0,0,0-1.9.9c0,.22-.07.45-.11.66C23.61,42.13,13.5,45.83,12,53.44Z"/><path class="cls-3" d="M7.68,51.23c-.36.54-.74,1.07-1.15,1.58.25.43.51.85.78,1.27C7.44,53.13,7.57,52.18,7.68,51.23Z"/><path class="cls-7" d="M51.87,11.11a21.35,21.35,0,0,0,4.4,4.06,6.7,6.7,0,0,0,0-2.64c-.31-.33-.58-.6-.82-.82A10.22,10.22,0,0,0,51.1,9.19a6,6,0,0,0-.74-.14c.08.24.15.49.22.74A3.89,3.89,0,0,1,51.87,11.11Z"/><path class="cls-7" d="M56.27,15.17a21.35,21.35,0,0,1-4.4-4.06,3.89,3.89,0,0,0-1.29-1.32,10.69,10.69,0,0,1,.21,4.77c-.84,4.32-3.93,6.28-8,8-6.38,2.95-18.12-4.2-19.72,4.06C20.68,39.1,7.29,38.54,6.46,42.86c-.33,2.73-.57,5.45-1,8.11.34.62.69,1.23,1,1.84.41-.51.79-1,1.15-1.58.19-1.67.32-3.34.35-5a.27.27,0,0,1,.1-.18,8.59,8.59,0,0,1,2-.86l0,0c.06-.31.1-.61.11-.67.72-3.68,5.16-4.77,9.37-6.63a35.56,35.56,0,0,1,5.55-3.75c2.05-2.57,3-6.25,6.56-6.57,2.33-.21,4.63-.25,6.91-.59a20.38,20.38,0,0,1,12.07-5.17c2.71-1.82,5.06-4,5.53-6.49C56.26,15.23,56.26,15.2,56.27,15.17Z"/><path class="cls-3" d="M56.25,15.26c-.47,2.45-2.82,4.67-5.53,6.49h.07c3-1.25,9.05,1.34,9.92-3.16a4.6,4.6,0,0,0,.07-.66,42.06,42.06,0,0,1-4.51-2.75S56.26,15.23,56.25,15.26Z"/><path class="cls-3" d="M60.78,17.92c0-.07,0-.14,0-.21-1.82-2.14-3.41-4-4.54-5.18a6.7,6.7,0,0,1,0,2.64A42.06,42.06,0,0,0,60.78,17.92Z"/><path class="cls-3" d="M25.18,34.08a21.27,21.27,0,0,1,2.28-1,11.3,11.3,0,0,1,1.42-.41,17.6,17.6,0,0,1,8.48-4.38c.11-.11.21-.23.33-.36.31-.34.63-.66,1-1-2.28.34-4.58.38-6.91.59C28.22,27.83,27.23,31.51,25.18,34.08Z"/><path class="cls-11" d="M50.31,9.69a1,1,0,0,1,.27.1c-.07-.25-.14-.5-.22-.74a7.83,7.83,0,0,0-2.36,0l-.14,0a8,8,0,0,1-1.3.12c0,.09.09.18.13.27C48.86,9.56,50.24,9.68,50.31,9.69Z"/><path class="cls-11" d="M23.1,26.59c1.6-8.26,13.34-1.11,19.72-4.06,4-1.69,7.13-3.65,8-8a10.69,10.69,0,0,0-.21-4.77,1,1,0,0,0-.27-.1c-.07,0-1.45-.13-3.62-.19a5.59,5.59,0,0,1,.4,3.44c-.87,4.51-8.47,10.4-19.32,8.29-1-.18-1.93-.39-2.91-.58-4.3-.83-7.95-1.39-10.1,2.45-3,7.19-7.09,13.59-12.42,18.15a30,30,0,0,0,.77,4.24c.14.44.29.87.45,1.3A34.27,34.27,0,0,0,5.48,51c.41-2.66.65-5.38,1-8.11C7.29,38.54,20.68,39.1,23.1,26.59Z"/><path class="cls-11" d="M2.2,41.37a24.37,24.37,0,0,0,.91,4.12,30,30,0,0,1-.77-4.24Z"/><path class="cls-7" d="M2.13,36.63a22.62,22.62,0,0,0,.07,4.74l.14-.12a19.4,19.4,0,0,1,.19-5.71c1.31-6.76,13.16-17.12,17.69-20.72,6.29-5.2,19.94-5.51,26.47-5.32,0-.09-.08-.18-.13-.27-6,.16-19.88-3.31-26.12,3.54-.66.73-.8,1.81-1.46,2.54,0,0-11.84,10.63-15.81,15C-2,35.92,2.45,33.94,2.13,36.63Z"/><path class="cls-1" d="M40.09,34.07a1.31,1.31,0,0,0,1.11,1.12c.52.1,2.29-1,3.81-.81.56-2.5,2.49-2.42,5.11-1.91,6.71,1.3,23.38,12.2,33.95,32.16.77,1.39,2.14,2.3,3,3.64.4-2.27-1.2-8-2.76-10.7-8.72-12.9-5.14-6-10.64-12-.53-.48-1.37-.64-1.88-1.24-1.35-1.38-1.6-3.3-3-4.68-1.66-1.7-3.83-2.12-5.59-3.33-.3-.23-6-5.94-13.58-7.4-3.44-.67-8.81.39-9.56,4.28A2.5,2.5,0,0,0,40.09,34.07Z"/><path class="cls-4" d="M39.91,34.37c.1.47.21,1,.3,1.47a9.64,9.64,0,0,0,3.18-.14A5.25,5.25,0,0,0,45,35a1.74,1.74,0,0,1,1.57.38,1.71,1.71,0,0,0-1.13-.88l-.16,0a4.94,4.94,0,0,0-2.43.32,5.82,5.82,0,0,1-1.62.45,1.33,1.33,0,0,1-1.11-1.1,2.29,2.29,0,0,1-.29-.18C39.84,34.07,39.87,34.22,39.91,34.37Z"/><path class="cls-5" d="M39.48,32.34c.06.45.18,1,.32,1.57a2.29,2.29,0,0,0,.29.18,1.88,1.88,0,0,1,0-.48,4.47,4.47,0,0,1,0-1.4c.65-3.35,4.91-4.6,8.47-4.75a11.57,11.57,0,0,0-8.92,3.65A1.57,1.57,0,0,0,39.48,32.34Z"/><path class="cls-3" d="M87.29,58.57c-.43-3.17-.6-4.29-4-7.58l-1.11-1a47.7,47.7,0,0,0-9-6C77.37,47.84,84,51,87.29,58.57Z"/><path class="cls-3" d="M69.74,39.07a10.55,10.55,0,0,0,2.61,4.1c-1-1.53-.87-3.77-2.28-5.05-.77-.7-1.55-.56-2.13-1.08A26.29,26.29,0,0,0,66,35.13l-.76-.67a31.73,31.73,0,0,0-10.35-5.88,21.32,21.32,0,0,1,8.35,6.52C65.29,37.18,69.13,37.39,69.74,39.07Z"/><path class="cls-9" d="M40.1,32.21a4.47,4.47,0,0,0,0,1.4,3.49,3.49,0,0,1,0-.44c.75-3.89,6.12-5,9.56-4.28,7.55,1.46,13.28,7.17,13.58,7.4,1.76,1.21,3.93,1.63,5.59,3.33,1.36,1.38,1.61,3.3,3,4.68.51.6,1.35.76,1.88,1.24,5.5,6.07,1.92-.87,10.64,12,1.64,2.79,3.32,9,2.69,11,1.84,1.48,1.77-.44.91-5.9-.09-.6-.19-1.23-.3-1.92-.14-.85-.24-1.57-.33-2.21C84,51,77.37,47.84,73.16,44l-.27-.15a3.28,3.28,0,0,1-.54-.64,10.55,10.55,0,0,1-2.61-4.1c-.61-1.68-4.45-1.89-6.46-4a21.32,21.32,0,0,0-8.35-6.52,20.4,20.4,0,0,0-6.36-1.12C45,27.61,40.75,28.86,40.1,32.21Z"/><path class="cls-5" d="M67.94,37c.58.52,1.36.38,2.13,1.08A4.19,4.19,0,0,1,71.17,40c3.84,1.88,7.3,4.51,8.79,8.22A27.22,27.22,0,0,1,82.14,50l1.11,1A20.57,20.57,0,0,0,77,41.12a32.61,32.61,0,0,0-11.72-6.66l.76.67A26.29,26.29,0,0,1,67.94,37Z"/><path class="cls-4" d="M71.17,40c.47,1.35.65,2.87,1.72,3.85A57.66,57.66,0,0,1,80,48.18C78.47,44.47,75,41.84,71.17,40Z"/><path class="cls-4" d="M59.8,30.35c-.27-.06-.57-.06-.85-.1a32.88,32.88,0,0,1,6.33,4.21c.9.29,1.79.63,2.67,1C68,33.33,60.07,30.4,59.8,30.35Z"/><path class="cls-3" d="M39.11,32.05l.37.29a1.57,1.57,0,0,1,.17-1.23c4.71-5.17,12.53-4.28,19.3-.86.28,0,.58,0,.85.1s8.24,3,8.15,5.11a31.63,31.63,0,0,1,9,5.66c.46.42.91.86,1.33,1.31,5.18,4.33,9.91,10.79,9.54,19.93,0,.11,0,.23,0,.34.39.45.76.91,1.14,1.34-.8-2.87,1.49-7.4-.6-11-9-16.16-28.32-25-36.63-26.57-.88-.17-11.61-1.85-12.62,3.37A7.82,7.82,0,0,0,39.11,32.05Z"/><path class="cls-4" d="M78.33,42.43A19.79,19.79,0,0,1,83.25,51c4.14,4,3.55,4.77,4.37,9.79l.25,1.58C88.24,53.22,83.51,46.76,78.33,42.43Z"/><path class="cls-7" d="M90.26,63s.27-1,.43-1.86c3.61-18.64-24-33.15-39-36.06-3.06-.59-6.59-.25-9.07,1.62,3.55-1.11,8.66-.3,9.26-.19,8.31,1.61,27.66,10.41,36.63,26.57,2.09,3.55-.2,8.08.6,11,.18.19.36.39.55.56a3.88,3.88,0,0,0,2,1A2.65,2.65,0,0,1,90.26,63Z"/><path class="cls-1" d="M67.66,27A55.49,55.49,0,0,1,62,27,23.27,23.27,0,0,0,53.53,23a20.5,20.5,0,0,0-9.12.28,18.59,18.59,0,0,0-6.72,4.62c-1.27,1.39-1.56,1.53.48,3.38.3.28.62.53.94.78a7.82,7.82,0,0,1,.1-2.16c.33-1.68,1.67-2.65,3.36-3.18,2.48-1.87,6-2.21,9.07-1.62C66.68,28,94.3,42.51,90.69,61.15c-.16.87-.43,1.85-.43,1.86a2.65,2.65,0,0,0,1.35,2.6,2.75,2.75,0,0,0,.39,0c.23-.34.5-.73.78-1.12a1.4,1.4,0,0,1,.31-.62l.23-.13a7.76,7.76,0,0,0,1.13-1.88C98.78,39.52,70.43,27.52,67.66,27Z"/><path class="cls-12" d="M92.46,65.5a2.94,2.94,0,0,0,.32-1c-.28.39-.55.78-.78,1.12A.69.69,0,0,0,92.46,65.5Z"/><path class="cls-9" d="M53.53,23A23.27,23.27,0,0,1,62,27,55.49,55.49,0,0,0,67.66,27c2.77.54,31.12,12.54,26.79,34.9a7.76,7.76,0,0,1-1.13,1.88,6.91,6.91,0,0,0,1.76-1.27c1.58-1.73,2.15-4.65,1.35-6.31-1.48-2.75-1.16-5-1.84-7.67a12.87,12.87,0,0,0-2.42-4.83l-1.82-2-5.19-5.8c-1.52-1.38-3.79-1.77-5.24-2.93a34.25,34.25,0,0,0-10.76-5.66,23.93,23.93,0,0,0-6.54-.88,1.23,1.23,0,0,1-1-.38,4.31,4.31,0,0,1-1.28-2c-2.91-2.65-9.78-3.23-15.89-.73A20.5,20.5,0,0,1,53.53,23Z"/><path class="cls-7" d="M84.43,30.55c3.82,3.95,9.36,13.8,13.19,14.54a1.83,1.83,0,0,0,.46,0,27.38,27.38,0,0,0-.32-6.47c-.41,1.09-1.09,2.26-1.88,2.11C92,40,87.77,27.66,82.7,25.23,73.92,21,58.41,16.86,60.48,5.35a8.36,8.36,0,0,0-4.62.6C54,19.11,79.38,25.84,84.43,30.55Z"/><path class="cls-11" d="M60.29,7.64c.37-.35,1.07-.5,2.29-.26l15,6.16c4.65,2,7.14,6,9.78,9.85a17.17,17.17,0,0,0-1-4.48A12.34,12.34,0,0,0,83.23,14c-3.75-3.42-8.15-1.69-20.4-7.92a8.25,8.25,0,0,0-2.35-.76A11.42,11.42,0,0,0,60.29,7.64Z"/><path class="cls-11" d="M92.32,27.9a4.16,4.16,0,0,0-2.59-1.33c2.08,2.55,4.41,4.87,6.65,7.24A16.24,16.24,0,0,0,92.32,27.9Z"/><path class="cls-9" d="M62.58,7.38c-1.22-.24-1.92-.09-2.29.26.24,9.8,14.24,13.68,22.41,17.59C87.77,27.66,92,40,95.88,40.77c.79.15,1.47-1,1.88-2.11a22.57,22.57,0,0,0-1.38-4.85c-2.24-2.37-4.57-4.69-6.65-7.24-.64-.07-1.42-.05-2.58-.16l0,0a7.38,7.38,0,0,0,.17-3c-2.64-3.81-5.13-7.86-9.78-9.85Z"/><path class="cls-5" d="M97,48a1.84,1.84,0,0,0,.7-.42,3,3,0,0,0,.25-1,12.11,12.11,0,0,1-2.75-1A27.61,27.61,0,0,1,97,48Z"/><path class="cls-5" d="M69.16,27.25a34.25,34.25,0,0,1,10.76,5.66c1.45,1.16,3.72,1.55,5.24,2.93l5.19,5.8c.45.24.88.5,1.31.77C83.5,31.7,71.61,27,65.08,22.72,66.44,24.28,67.82,25.83,69.16,27.25Z"/><path class="cls-5" d="M60.3,23.63l-.65-.13a5.58,5.58,0,0,1,.65.5,4.31,4.31,0,0,0,1.28,2,1.23,1.23,0,0,0,1,.38,23.93,23.93,0,0,1,6.54.88c-1.51-1.6-3.07-3.36-4.59-5.12a1.53,1.53,0,0,1,0,.64C64.31,24.09,63.32,24.21,60.3,23.63Z"/><path class="cls-4" d="M50.79,21.74c3.58-.29,6.85.36,8.86,1.76l.65.13c3,.58,4,.46,4.27-.86a1.53,1.53,0,0,0,0-.64c-1.32-1.52-2.6-3-3.78-4.42a4.94,4.94,0,0,1-.08.87C59.84,23.08,53.81,20.49,50.79,21.74Z"/><path class="cls-3" d="M54.84,10.62a5.71,5.71,0,0,1,1.65,2.16c2,2.13,5.2,6,8.59,9.94,6.53,4.27,18.42,9,26.58,19.69a14.9,14.9,0,0,1,1.87,1.45,19.11,19.11,0,0,1,1.64,1.72,12.11,12.11,0,0,0,2.75,1c.06-.39.12-.9.16-1.49a1.83,1.83,0,0,1-.46,0c-3.83-.74-9.37-10.59-13.19-14.54C79.38,25.84,54,19.11,55.86,6a10.9,10.9,0,0,0-1.37.68,4.64,4.64,0,0,0-.62,1.49A2.45,2.45,0,0,0,54.84,10.62Z"/><path class="cls-5" d="M51.1,9.19a10.22,10.22,0,0,1,4.33,2.52c.3.27.66.64,1.06,1.07a5.71,5.71,0,0,0-1.65-2.16,2.45,2.45,0,0,1-1-2.5,4.64,4.64,0,0,1,.62-1.49A18.41,18.41,0,0,0,51.1,9.19Z"/><path class="cls-3" d="M46.24,34.94a1.68,1.68,0,0,1,.3.4,7.27,7.27,0,0,1,.6.49,4.38,4.38,0,0,1,.51.55,17.2,17.2,0,0,1,5.24-.58A19.47,19.47,0,0,1,60.67,39c-2.7-2.27-5.92-4.48-9-5.08A6.72,6.72,0,0,0,46.24,34.94Z"/><path class="cls-9" d="M46.24,34.94a6.72,6.72,0,0,1,5.41-1.06c3.1.6,6.32,2.81,9,5.08a25.46,25.46,0,0,1,4.16,3.47l.34-.25-.33.25a19.47,19.47,0,0,1,1.86,2.16,19.47,19.47,0,0,0-1.86-2.16l-.27.21a2.39,2.39,0,0,1,.22.16l.23-.15C75.5,54.73,81.63,62.75,85,66.54a18,18,0,0,0,2,2.06,2.72,2.72,0,0,0,.07-.33c-.87-1.34-2.24-2.25-3-3.64-10.57-20-27.24-30.86-33.95-32.16C47.5,32,45.57,31.88,45,34.38l.24,0A1.78,1.78,0,0,1,46.24,34.94Z"/><path class="cls-5" d="M59.2,47a14.68,14.68,0,0,1,8.44-.8l.49.11c-1-1.16-2-2.36-3.11-3.61-2.36,1.54-4.84,3.23-7.29,5l.28-.15A9.78,9.78,0,0,1,59.2,47Z"/><path class="cls-3" d="M59.2,47a9.81,9.81,0,0,1,5.27-.23,9.29,9.29,0,0,1,5,3c4.21,4.45,8,8,11,11.41-3-3.69-7-8.64-12.3-14.82l-.49-.11A14.68,14.68,0,0,0,59.2,47Z"/><path class="cls-13" d="M58,47.48l-.28.15-.13.09Z"/><path class="cls-3" d="M40.8,64.28C44.12,61,47.59,56,51.73,52.05a94,94,0,0,0-11.17,9.63A40.94,40.94,0,0,0,37.12,66c.94-.29,1.84-.62,2.7-1Z"/><path class="cls-5" d="M56.24,48.69c-1.54,1.12-3.05,2.25-4.51,3.36C47.59,56,44.12,61,40.8,64.28,49.08,58,52.41,51.87,56.24,48.69Z"/><path class="cls-5" d="M35.57,33a40.7,40.7,0,0,1,4.34,1.42c-.18-.77-.35-1.46-.43-2a14.58,14.58,0,0,1-1.31-1.07l-.08-.07A2.79,2.79,0,0,1,35.57,33Z"/><path class="cls-4" d="M35.57,33a2.79,2.79,0,0,0,2.52-1.75c-1.76-1.61-1.69-1.89-.73-2.95a17.6,17.6,0,0,0-8.48,4.38A14.3,14.3,0,0,1,35.57,33Z"/><path class="cls-9" d="M19.35,92.75c-7.3-1.41-10.82-6.16-13.69-11.94a10.34,10.34,0,0,0,3.59,7.86,17.06,17.06,0,0,0,5.9,3.22c.34.32.68.86,1.14,1.27a5.4,5.4,0,0,0,2.54,1.26c2.31.54,5.07.16,7.32.8,1.74.6,3,1.94,5.61,1.15l.52-.18a36.5,36.5,0,0,1,6.62-1.85,15.31,15.31,0,0,0-2.07-.52C30.84,92.66,25.7,94,19.35,92.75Z"/><path class="cls-1" d="M1.11,65.11a10.9,10.9,0,0,0,1-2.79A12.25,12.25,0,0,0,.45,54.1,21.62,21.62,0,0,0,1.11,65.11Z"/><path class="cls-6" d="M1.11,65.11c1.24,4.47,3.22,9,4.35,13.86a16.45,16.45,0,0,1,.2,1.84c2.87,5.78,6.39,10.53,13.69,11.94,6.35,1.23,11.49-.09,17.48,1.07a15.31,15.31,0,0,1,2.07.52,16,16,0,0,0,2.64-.87.68.68,0,0,0,.08-.24c.1-.47-.79-1-1.27-1a14,14,0,0,1-5.61.17c-2.37-.46-4.68-1.44-7.08-1.91-3.68-.71-5.79.36-8.09-.08-3.09-.6-4.92-3.61-6.81-5.85C8,78.83,3.25,73.78,4.5,65.76c.82-5.24-.77-10.21-2.86-15.07A19.82,19.82,0,0,0,.51,53.81l-.06.29a12.25,12.25,0,0,1,1.64,8.22A10.9,10.9,0,0,1,1.11,65.11Z"/><path class="cls-6" d="M6.81,57.32c-1.13,7.14-2.23,14,.58,19.74-1.1-2.94.53-7.23.12-9.76A87.77,87.77,0,0,1,6.81,57.32Z"/><path class="cls-6" d="M8,78.13A16.66,16.66,0,0,0,11.12,82a34.31,34.31,0,0,0,4.35,2.65c.59.54.25.94,1.49,2.07A8.65,8.65,0,0,0,18.73,88h.07l.14,0A66.72,66.72,0,0,0,8.51,78.74,4.46,4.46,0,0,1,8,78.13Z"/><path class="cls-9" d="M6.81,57.32a87.77,87.77,0,0,0,.7,10c.41,2.53-1.22,6.82-.12,9.76.17.36.36.72.57,1.07a4.46,4.46,0,0,0,.55.61A66.72,66.72,0,0,1,18.94,88c1.09.2,5.08.84,5.28-.18,1.46-7.53-11.6-7.83-11.63-12.9-.05-6.69,1.31-12.73-.53-19a5.94,5.94,0,0,1,0-2.48c1.48-7.61,11.59-11.31,13-18.66,0-.21.08-.44.11-.66a30.81,30.81,0,0,0-3.8,2.41A63.41,63.41,0,0,1,8,46.93a66,66,0,0,1-.7,7.15C7.15,55.17,7,56.25,6.81,57.32Z"/><path class="cls-11" d="M21.34,36.53c-3.61,2.65-6.87,5.9-10.74,8.41-.81.5-2.11.7-2.47,1.1a.27.27,0,0,0-.1.18c0,.24,0,.47,0,.71A63.41,63.41,0,0,0,21.34,36.53Z"/><path class="cls-5" d="M6.27,60.86c.32-2.22.71-4.49,1-6.78C6.66,53.05,6,52,5.47,50.94c.06.42.12.89.18,1.43C5.68,52.7,6,57.25,6.27,60.86Z"/><path class="cls-3" d="M1.64,50.69c2.09,4.86,3.68,9.83,2.86,15.07-1.25,8,3.48,13.07,8.26,18.76,1.89,2.24,3.72,5.25,6.81,5.85,2.3.44,4.41-.63,8.09.08,2.4.47,4.71,1.45,7.08,1.91a14,14,0,0,0,5.61-.17c.48.09,1.37.57,1.27,1a.68.68,0,0,1-.08.24,8.53,8.53,0,0,0,2.19-1.41h0a17,17,0,0,0,2.8-5.47c-.36-.65-.68-1.28-1-1.88A16.11,16.11,0,0,1,43.53,88c-.86,1-3,2.83-4.2,1.77-.11-.1-.17-.2-.12-.26a1.63,1.63,0,0,0,0-.82,3.74,3.74,0,0,1-1.33,0,4.65,4.65,0,0,1-.79,1.51c-1.48,1.63-7.9-1.49-8.95-2.44l-.26-.25c-3.47,2-7.73,2.16-10.9-.73-1.24-1.13-.9-1.53-1.49-2.07A34.31,34.31,0,0,1,11.12,82c-6.29-5.73-6-13.15-4.85-21.13-.24-3.61-.59-8.16-.62-8.49-.06-.54-.12-1-.18-1.43a32.38,32.38,0,0,1-1.91-4.15C2.88,48.1,2.21,49.4,1.64,50.69Z"/><path class="cls-11" d="M90.71,9.33a11.29,11.29,0,0,1,7.19,4.41c8.32,12.09,25.33,14,24,20.86a2.64,2.64,0,0,1-.53,1.18,12.46,12.46,0,0,0,2.41-1.6c1.53-10-16.72-4.16-17.27-18.13C106.18,10.73,103.37,3,98.1,2c-4.4-.85-16.51,5.37-26.86,3.37A43.4,43.4,0,0,1,66.7,4.12,36.4,36.4,0,0,0,78.1,8.35C84.75,9.63,87.65,8.74,90.71,9.33Z"/><path class="cls-7" d="M104.5,21.77c4.39,3.62,16.4,7.9,15.12,14.5,0,.12-.06.25-.09.37.63-.26,1.25-.55,1.84-.86a2.64,2.64,0,0,0,.53-1.18c1.33-6.89-15.68-8.77-24-20.86a11.29,11.29,0,0,0-7.19-4.41c-2.6-.5-5.09.07-9.87-.54,5,1.5,9.09,2.74,9.94,3.09C96.1,14.11,100,18.25,104.5,21.77Z"/><path class="cls-3" d="M68.86,5.27c-.73-.36-1.45-.74-2.16-1.15a98.58,98.58,0,0,0-10.1-2.9c-2.4-.47-7.08-.71-9.51.13a5,5,0,0,0-.41.39,2.32,2.32,0,0,0-.82,1.93,14.71,14.71,0,0,1,10.69-2S62.18,3.32,68.86,5.27Z"/><path class="cls-3" d="M59.38,2.57a8.59,8.59,0,0,1,2.62,1A79.34,79.34,0,0,0,75.14,9.17c5.48,1.9,11,3.59,16.45,6.15,1.43.67,2.24,2.58,3.64,3.44a73.19,73.19,0,0,0,8.87,4.74c3.93,1.95,7.63,4.11,10,7.91,1.09,1.74,1.77,4.44,3.41,6l.94-.34c.37-.14.73-.28,1.09-.44,0-.12.07-.25.09-.37,1.28-6.6-10.73-10.88-15.12-14.5s-8.4-7.66-13.72-9.89c-.85-.35-4.9-1.59-9.94-3.09-.84-.11-1.75-.25-2.74-.44a37.2,37.2,0,0,1-9.24-3.08C62.18,3.32,56.57,1.71,56.55,1.71a14.71,14.71,0,0,0-10.69,2,13.65,13.65,0,0,0,1.45,4C51.59,6.35,52.07,1.16,59.38,2.57Z"/><path class="cls-5" d="M115.13,38.18l.62-.19c-.81-1.7-1.43-3.48-2.17-5.17A52,52,0,0,0,115.13,38.18Z"/><path class="cls-5" d="M47.31,7.65,48,9.09a7.61,7.61,0,0,1,3.1.1c3.22-3,7.28-5.26,11.73-3.08a58.2,58.2,0,0,0,11.31,4.47C67,7.32,61.58,5,59.32,4.55c-3.82-.74-6.42,1.08-9.89,2A6.88,6.88,0,0,1,47.31,7.65Z"/><path class="cls-4" d="M74.14,10.58C78.46,11.78,81,12,83.23,14a11.07,11.07,0,0,1,1.27,1.39c7.42,3.5,15.61,7.4,23.43,11a9.85,9.85,0,0,1,4.27,3.78l0,0a4.46,4.46,0,0,1,1.24,2.18c0,.14.06.27.1.41.74,1.69,1.36,3.47,2.17,5.17.58-.18,1.17-.37,1.75-.57-1.64-1.57-2.32-4.27-3.41-6-4.16-6.69-12.47-8.28-18.86-12.65C93.83,17.9,93,16,91.59,15.32,81.73,10.68,71.52,8.89,62,3.52a8.59,8.59,0,0,0-2.62-1c-5.9-1.14-7.35,2-10,4,3.47-.92,6.07-2.74,9.89-2C61.58,5,67,7.32,74.14,10.58Z"/><path class="cls-5" d="M107.93,26.42c-7.82-3.6-16-7.5-23.43-11a12.86,12.86,0,0,1,1.91,3.49A123.31,123.31,0,0,1,112.2,30.2,9.85,9.85,0,0,0,107.93,26.42Z"/><path class="cls-14" d="M93.56,0c-4.31,0-9.08,1.09-13.11,1.31A137,137,0,0,1,59.52.56c2.92.68,5.85,1.43,8.8,2C78.2,4.47,87.11,1.54,93.56,0Z"/><path class="cls-15" d="M47.09,1.35c2.43-.84,7.11-.6,9.51-.13,5,1,10.52,3.32,14.64,4.12C81.59,7.34,93.7,1.12,98.1,2c5.27,1,8.08,8.76,8.41,14.08.55,14,18.8,8.17,17.27,18.13a7.76,7.76,0,0,0,.65-.63c2.07-2.27,2.54-6-.69-8.91C120,21.26,112.43,19,109.33,16.2c-4.06-3.71-3.51-9.88-7.55-13.56C99.58.64,96.69,0,93.56,0,87.11,1.54,78.2,4.47,68.32,2.56c-2.95-.57-5.88-1.32-8.8-2C53.39,0,49.21-.36,47.09,1.35Z"/><path class="cls-3" d="M15.89,40.92c1.25-1,2.48-2.09,3.74-3.09-4.21,1.86-8.65,3-9.37,6.63,0,.06,0,.36-.11.67l0,0a3,3,0,0,0,.47-.24l.47-.32A8.17,8.17,0,0,1,15.89,40.92Z"/><path class="cls-5" d="M11.07,44.62a60.3,60.3,0,0,0,4.82-3.7A8.17,8.17,0,0,0,11.07,44.62Z"/><path class="cls-5" d="M92.26,69.71l1.22,1.22.77.74a19.51,19.51,0,0,1,3.91-2c-1.84,0-3.6.08-5,.08Z"/><path class="cls-7" d="M104.79,57.68c-.05.48-.09,1-.11,1.41.68.61,1.4,1.18,2.13,1.72C106.09,59.81,105.42,58.76,104.79,57.68Z"/><path class="cls-5" d="M87.19,26.38l0,0c1.47.14,2.32.07,3.07.24-1.4-1.8-2.27-3.65-1.83-5.89a7.57,7.57,0,0,1,.31-1.13c-.75-.24-1.52-.49-2.29-.72C87.74,22.54,87.45,26.1,87.19,26.38Z"/><path class="cls-5" d="M99,40.05a13.6,13.6,0,0,0-2.76-6.59C99.06,39.9,98,47.19,97.67,47.58A1.84,1.84,0,0,1,97,48c2.55,3.81,4.54,8.21,7.59,11l.12.1c0-.45.06-.93.11-1.41A46.19,46.19,0,0,1,99,40.05Z"/><path class="cls-3" d="M106.48,50.13c1.72-8.87-13-20.44-12.58-26.95-2.9-.1-5.09.39-5.28.71a10.1,10.1,0,0,0,1.6,2.76,4.52,4.52,0,0,1,2.1,1.25,16.34,16.34,0,0,1,3.91,5.56A13.6,13.6,0,0,1,99,40.05a46.19,46.19,0,0,0,5.8,17.63c.07-.62.16-1.26.29-1.91C105.47,53.74,106.45,50.29,106.48,50.13Z"/><path class="cls-3" d="M88.62,23.89c.19-.32,2.38-.81,5.28-.71a4,4,0,0,1,.06-.5,5.17,5.17,0,0,1,.33-1.05c-1.78-.69-3.65-1.36-5.59-2a7.57,7.57,0,0,0-.31,1.13A5.87,5.87,0,0,0,88.62,23.89Z"/><path class="cls-9" d="M119.79,48.48a18.78,18.78,0,0,1,2.71,3.08,2.87,2.87,0,0,0-.76-1.59c-.76-.95-1.46-1.89-2.11-2.84l-1.14.1A15.47,15.47,0,0,0,119.79,48.48Z"/><path class="cls-11" d="M115.64,43c-3-5.85-3.86-12.83-11-16.88l-1.7-.82C102.4,32.56,109.69,37.87,115.64,43Z"/><path class="cls-9" d="M115.64,43c1.16,1,2.27,2,3.27,3a38.1,38.1,0,0,1-3.78-7.85,53.63,53.63,0,0,1-1.65-5.77,4.46,4.46,0,0,0-1.24-2.18c-.09-.08-3-1.83-7.64-4.1C111.78,30.18,112.66,37.16,115.64,43Z"/><path class="cls-9" d="M118.49,47.23l1.14-.1c-.25-.36-.49-.73-.72-1.1-1-1-2.11-2-3.27-3A18.33,18.33,0,0,0,118.49,47.23Z"/><path class="cls-7" d="M93.9,23.18a22.2,22.2,0,0,1,3.31.37A27.24,27.24,0,0,1,102.15,25c-2.33-1.08-5-2.23-7.86-3.33A5.17,5.17,0,0,0,94,22.68,4,4,0,0,0,93.9,23.18Z"/><path class="cls-7" d="M93.9,23.18c-.39,6.51,14.3,18.08,12.58,27,0,.16-1,3.61-1.4,5.64-.13.65-.22,1.29-.29,1.91.63,1.08,1.3,2.13,2,3.13,1.06.8,2.14,1.57,3.17,2.42,0-3.11-2.31-7-1.69-10.29.81-4.18,5.33-5.28,10.2-5.71A18.33,18.33,0,0,1,115.64,43c-6-5.14-13.24-10.45-12.74-17.7l-.75-.35a27.24,27.24,0,0,0-4.94-1.41A22.2,22.2,0,0,0,93.9,23.18Z"/><path class="cls-5" d="M121.18,61.2a22.65,22.65,0,0,1-1.56-5c-.37.46-.77,1-1.2,1.55C119.31,58.88,120.24,60,121.18,61.2Z"/><path class="cls-4" d="M125.22,66.17a2.12,2.12,0,0,1,.36.85c.16-.67.29-1.36.41-2.08-4.17-5-4.73-6.45-5-10.5l-1.38,1.72a22.65,22.65,0,0,0,1.56,5C122.52,62.84,123.87,64.49,125.22,66.17Z"/><path class="cls-5" d="M119.27,46.58c-.33-.88-1-1.77-1.29-2.72a13,13,0,0,1-.13-6.46.36.36,0,0,1,0-.11c-.92.32-1.84.62-2.74.89A38.14,38.14,0,0,0,119.27,46.58Z"/><path class="cls-4" d="M118,43.86c.29,1,1,1.84,1.29,2.72.43.65.87,1.29,1.34,1.93-.44-2.85-2-5.2-1.41-8.35a7.43,7.43,0,0,1,.23-.9c-.36-.72-.7-1.45-1-2.18l-.57.21a.36.36,0,0,0,0,.11A13,13,0,0,0,118,43.86Z"/><path class="cls-7" d="M128.41,55.85c.81-1.83-1.91-5.4-4.9-9.82-.32,5.45.33,10.85,3.1,15.36A22.06,22.06,0,0,1,128.41,55.85Z"/><path class="cls-3" d="M119.43,39.26a7.43,7.43,0,0,0-.23.9c-.61,3.15,1,5.5,1.41,8.35.36.49.74,1,1.13,1.46,1.26,1.6.93,2.36-.74,4.47.26,4.05.82,5.52,5,10.5.19-1.14.37-2.32.62-3.55-2.77-4.51-3.42-9.91-3.1-15.36A61,61,0,0,1,119.43,39.26Z"/><path class="cls-11" d="M110,63.23l.36.29.42.37a15.28,15.28,0,0,1,1.48,1.52A42.27,42.27,0,0,1,120.56,55c1.31-1.64,2-2.53,1.94-3.43a18.78,18.78,0,0,0-2.71-3.08,15.47,15.47,0,0,1-1.3-1.25c-4.87.43-9.39,1.53-10.2,5.71C107.67,56.18,110,60.12,110,63.23Zm7.86-11.87c1.23.23,1.27,1,1,2.25-.59,3.06-3.47,5.38-5.2,8.07-.27,0-.6.18-.87.12-1.1-.21-1-5.93-.81-7C112.47,52.25,115.6,50.92,117.84,51.36Z"/><path class="cls-9" d="M112.8,61.8c.27.06.6-.17.87-.12,1.73-2.69,4.61-5,5.2-8.07.24-1.25.2-2-1-2.25-2.24-.44-5.37.89-5.85,3.4C111.77,55.87,111.7,61.59,112.8,61.8Z"/><path class="cls-3" d="M126.69,77.53c-.22,1.12-2.25,4.17-3.69,8.57,3.66-5.29,5.48-8.25,6.08-10.25-.79,0-1.57,0-2.33,0A6.72,6.72,0,0,1,126.69,77.53Z"/><path class="cls-3" d="M102.64,81.28c-.19,1,.5,2.63,1.25,4.5,5.43-6.3,13.13-9.86,22.86-10-.27-3.54-2.53-9.19-6.32-9.93-3.52-.68-5.23,2-5.92,5.52-.14.75-.27,1.53-.42,2.3a15.46,15.46,0,0,1-.83,3,2.35,2.35,0,0,1-.62,1.9c-1.26,1.37-4.73,1.54-8.53,1.23A1.88,1.88,0,0,0,102.64,81.28Z"/><path class="cls-3" d="M104.88,92.12a.56.56,0,0,1,0,.12,5,5,0,0,1,.36.86,3.44,3.44,0,0,0,.22-.73c.35-1.83-.63-4.35-1.53-6.59q-.54.63-1,1.29C103.94,89.33,105,91.38,104.88,92.12Z"/><path class="cls-5" d="M102.84,87.07c-.25.32-.49.63-.72,1a49.88,49.88,0,0,1,2.72,4.21.56.56,0,0,0,0-.12C105,91.38,103.94,89.33,102.84,87.07Z"/><path class="cls-5" d="M102.12,88c.23-.33.47-.64.72-1-1.22-2.47-2.47-5.19-2.18-6.7a4.92,4.92,0,0,1,.29-.92c-1.16-.15-2.31-.33-3.38-.51A31.69,31.69,0,0,0,102.12,88Z"/><path class="cls-4" d="M102.84,87.07q.51-.66,1-1.29c-.75-1.87-1.44-3.55-1.25-4.5a1.88,1.88,0,0,1,1.47-1.49c-1-.08-2.11-.2-3.16-.34a4.92,4.92,0,0,0-.29.92C100.37,81.88,101.62,84.6,102.84,87.07Z"/><path class="cls-4" d="M113.66,68.6c-.63,3.25-.07,4.87-.42,6.68,0,.18-.07.34-.1.47a6.93,6.93,0,0,1,.12.91,15.46,15.46,0,0,0,.83-3c.15-.77.28-1.55.42-2.3.69-3.53,2.4-6.2,5.92-5.52,3.79.74,6,6.39,6.32,9.93.76,0,1.54,0,2.33,0,.86-2.86-.77-3.74-3-6.67a9.11,9.11,0,0,1-.52-2.16,2.12,2.12,0,0,0-.36-.85c-1.5-1.87-3-3.69-4.48-5.51l-.14,0C118.82,60.28,114.83,62.55,113.66,68.6Z"/><path class="cls-5" d="M112.91,69s-.54.06-1.4.11c.77,3.29,1.38,5.29,1.63,6.64,0-.13.07-.29.1-.47.35-1.81-.21-3.43.42-6.68,1.17-6,5.16-8.32,6.94-8l.14,0c-.79-1-1.57-2-2.32-2.95a80.9,80.9,0,0,0-4.9,7.22c-.24.41-.47.83-.71,1.26C113.43,67.16,113.66,68.17,112.91,69Z"/><path class="cls-7" d="M105.2,93.1a1.53,1.53,0,0,1-.19,1.6,15.75,15.75,0,0,1-4.39,2.9c.23,0,.46.06.7.11,3.94.76,7.82,3.66,11.84,4.44a6.37,6.37,0,0,0,4.44-.5c.57-3.08.49-8.57,3-12.18L123,86.1c1.44-4.4,3.47-7.45,3.69-8.57a6.72,6.72,0,0,0,.06-1.72c-9.73.11-17.43,3.67-22.86,10,.9,2.24,1.88,4.76,1.53,6.59A3.44,3.44,0,0,1,105.2,93.1Zm16.51-13a.86.86,0,0,1,.71,1.16,41.87,41.87,0,0,0-5.86,14.15,35.81,35.81,0,0,0-.63,5.46c-2.85-2.19-8.22-4.57-7.06-10.53C110.07,84.16,119.39,79.68,121.71,80.13Z"/><path class="cls-11" d="M115.93,100.9a35.81,35.81,0,0,1,.63-5.46,41.87,41.87,0,0,1,5.86-14.15.86.86,0,0,0-.71-1.16c-2.32-.45-11.64,4-12.84,10.24C107.71,96.33,113.08,98.71,115.93,100.9Z"/><path class="cls-5" d="M112,71.2c-.16-.64-.33-1.33-.51-2.09h-.26a27.42,27.42,0,0,1-3.52,5.42,6.61,6.61,0,0,1-2.57,1.82C106.73,76.18,109,73.8,112,71.2Z"/><path class="cls-3" d="M104.19,77c4.59.89,6.13-1.93,8.2-4.31-.12-.44-.24-.92-.37-1.44-3,2.6-5.29,5-6.86,5.16a5.26,5.26,0,0,1-2,.34C103.48,76.8,103.84,76.88,104.19,77Z"/><path class="cls-5" d="M93.48,70.93c.46,1.44.94,2.9,1.28,4.47a3.42,3.42,0,0,1,2-1.5c-.62-.48-1.23-1-1.84-1.56S94,71.41,93.48,70.93Z"/><path class="cls-3" d="M94.76,75.4c.07.29.13.59.19.89a2,2,0,0,1-.44,1.56,5.8,5.8,0,0,1,5.58-1.91,16.31,16.31,0,0,1-3.21-2l-.07-.06A3.42,3.42,0,0,0,94.76,75.4Z"/><path class="cls-11" d="M102.05,78.51c4.37.85,9.35,1.11,11.18-2.19a36.82,36.82,0,0,0-.84-3.68c-2.07,2.38-3.61,5.2-8.2,4.31-.35-.07-.71-.15-1.06-.25a7.83,7.83,0,0,1-3-.76,5.74,5.74,0,0,0-5.42,1.75c1-.17,2.68-.09,6.12.58Z"/><path class="cls-9" d="M94.23,78.32c1,.19,2.11.41,3.34.62,5.61,1,13.09,1.78,15.07-.38a2.5,2.5,0,0,0,.59-2.24c-1.83,3.3-6.81,3-11.18,2.19l-1.26-.24c-3.44-.67-5.14-.75-6.12-.58a1.21,1.21,0,0,0-.16.16Z"/><path class="cls-11" d="M95,72.34c.63.58,1.27,1.12,1.91,1.62a13.12,13.12,0,0,0,5,2.58,9.8,9.8,0,0,1-1.68-2.06l-.25,0a10.6,10.6,0,0,1-5.45-2.92l-.22.15Z"/><path class="cls-3" d="M100.17,74.48a4.06,4.06,0,0,1-.62-2.82,3.75,3.75,0,0,1,1.18-2.09l-2.57.07a20.42,20.42,0,0,0-3.69,1.88,10.6,10.6,0,0,0,5.45,2.92Z"/><path class="cls-9" d="M100.17,74.48a9.8,9.8,0,0,0,1.68,2.06,5.79,5.79,0,0,0,5.88-2,27.42,27.42,0,0,0,3.52-5.42l-1.26.07C107.6,73,105.32,75.39,100.17,74.48Z"/><path class="cls-7" d="M100.17,74.48c5.15.91,7.43-1.45,9.82-5.29-2.35.12-5.82.27-9.26.38a3.75,3.75,0,0,0-1.18,2.09A4.06,4.06,0,0,0,100.17,74.48Z"/><path class="cls-7" d="M112.81,66.19c.24-.43.47-.85.71-1.26a80.9,80.9,0,0,1,4.9-7.22c.83-1.1,1.55-2,2.14-2.72a42.27,42.27,0,0,0-8.32,10.42A6,6,0,0,1,112.81,66.19Z"/><path class="cls-5" d="M80,76.08a16.93,16.93,0,0,0-1.87,3.42c1.58,2.34,2.1,5.83,1.79,9.38.11-.42.19-.79.25-1.1a67,67,0,0,0,.88-9.34c.09-.42.89-.62,1.44-.51a4.54,4.54,0,0,1,1.52.65c0-.14,0-.29,0-.44C82.84,77.45,81.49,76.76,80,76.08Z"/><path class="cls-3" d="M81.07,78.44a67,67,0,0,1-.88,9.34c-.06.31-.14.68-.25,1.1a21.49,21.49,0,0,1-3.19,9.77c3.48-3.41,4.51-9.21,6.08-13.79A6,6,0,0,1,85,82a6.15,6.15,0,0,1-1-3.4,4.54,4.54,0,0,0-1.52-.65C82,77.82,81.16,78,81.07,78.44Z"/><path class="cls-16" d="M87.92,62.7c0,.25.08.49.11.72,0-.14.1-.27.16-.4Z"/><path class="cls-3" d="M90.58,76.27c.79-4-1.66-7-1.15-9.61A3.71,3.71,0,0,1,90.14,65a4.48,4.48,0,0,1-.53-.41A15.59,15.59,0,0,1,88.19,63c-.06.13-.11.26-.16.4.73,4.75.73,6.49-.87,5.3a67.12,67.12,0,0,1-.62,8.35c0,.1-.11.49-.22.94a21,21,0,0,0,1.17,2.32A6.19,6.19,0,0,0,90.58,76.27Z"/><path class="cls-5" d="M87.16,68.72A16.7,16.7,0,0,1,85,66.54a32.32,32.32,0,0,1,.3,4.79,13.08,13.08,0,0,0,1,6.68c.11-.45.2-.84.22-.94A67.12,67.12,0,0,0,87.16,68.72Z"/><path class="cls-1" d="M91,85.52A65,65,0,0,0,87.63,96c-.27,1.36-2.62,1.23-5.7,1.25A4.72,4.72,0,0,1,80,98.49c3-.4,7.63-.19,8.59-1.25a76.63,76.63,0,0,0,4.29-13A21.52,21.52,0,0,0,91,85.52Z"/><path class="cls-9" d="M87.63,96A65,65,0,0,1,91,85.52a27,27,0,0,0-8.43,10.87,3.47,3.47,0,0,1-.59.88C85,97.25,87.36,97.38,87.63,96Z"/><path class="cls-1" d="M91,85.52a21.52,21.52,0,0,1,2-1.29,46.56,46.56,0,0,0,.91-5,3.25,3.25,0,0,1,.4-1c.4-.7.9-1.3.72-2a28.86,28.86,0,0,0-.68-2.81,6.12,6.12,0,0,1,0,2A66.51,66.51,0,0,1,91,85.52Z"/><path class="cls-1" d="M76.29,99.29l2.9-.66.85-.14a4.72,4.72,0,0,0,1.89-1.22,34,34,0,0,0-4.17.24,13.7,13.7,0,0,1-1,1.14C76.6,98.87,76.45,99.09,76.29,99.29Z"/><path class="cls-9" d="M111.48,66.4c-.42,2.2-11.27,1.13-16.25,2.47a6.13,6.13,0,0,0-.85.84c5.37,0,13.42-.39,16.87-.59h.26c.86,0,1.38-.09,1.4-.11.75-.83.52-1.84-.1-2.81a11.85,11.85,0,0,0-2-2.3l-.12-.11A3.54,3.54,0,0,1,111.48,66.4Z"/><path class="cls-7" d="M93.35,69.72h1a6.13,6.13,0,0,1,.85-.84A4.91,4.91,0,0,0,93.35,69.72Z"/><path class="cls-5" d="M96.12,46.78a22.69,22.69,0,0,0-1.83-2.18,51.26,51.26,0,0,0,2.15,4.86C96.33,48.59,96.22,47.7,96.12,46.78Z"/><path class="cls-5" d="M90.35,41.64l1.82,2a12.87,12.87,0,0,1,2.42,4.83c.68,2.66.36,4.92,1.84,7.67a5,5,0,0,1,.26,2.9,5.23,5.23,0,0,0,.45-1.35c.19-1-.22-4.29-.7-8.27a51.26,51.26,0,0,1-2.15-4.86c-.25-.26-.5-.51-.76-.74A15.32,15.32,0,0,0,90.35,41.64Z"/><path class="cls-3" d="M100.26,60.57s-.14-2.16-.32-5.37a42.5,42.5,0,0,1-3.5-5.74c.48,4,.89,7.28.7,8.27a5.23,5.23,0,0,1-.45,1.35,7,7,0,0,1-1.61,3.41,8,8,0,0,1-2,1.4l0,0C95.9,63.83,99.44,64.79,100.26,60.57Z"/><path class="cls-3" d="M99.94,55.2c0-.81-.1-1.69-.15-2.61C98.87,51.05,98,49.48,97,48c-.28-.42-.56-.82-.85-1.22.1.92.21,1.81.32,2.68A42.5,42.5,0,0,0,99.94,55.2Z"/><path class="cls-11" d="M106.47,63.2c-.58,3-7.55,2.56-11.24,5.67,5-1.34,15.83-.27,16.25-2.47a2.44,2.44,0,0,0-.16-1.37,30.52,30.52,0,0,1-5.39-3.48C106.24,62.57,106.47,63.2,106.47,63.2Z"/><path class="cls-11" d="M111.32,65a5.53,5.53,0,0,0-.68-1.25l-.3-.26c-1.58-1.36-3.33-2.48-4.93-3.79.18.68.36,1.3.52,1.82A30.52,30.52,0,0,0,111.32,65Z"/><path class="cls-7" d="M105.93,61.55c-.16-.52-.34-1.14-.52-1.82-.29-.24-.57-.48-.85-.74a28.24,28.24,0,0,1-4.77-6.4c0,.92.1,1.8.15,2.61A33.66,33.66,0,0,0,105.93,61.55Z"/><path class="cls-11" d="M106.47,63.2s-.23-.63-.54-1.65a33.66,33.66,0,0,1-6-6.35c.18,3.21.32,5.37.32,5.37-.82,4.22-4.36,3.26-7.2,3.35-.39.47-.33,1.29-.6,1.58s-1.21.26-2.32-.49a3.71,3.71,0,0,0-.71,1.65c-.51,2.66,1.94,5.58,1.15,9.61a6.19,6.19,0,0,1-3.09,4.06l.12.2,0,.06c.66,1.11,1.42,2.21,2.22,3.35A2.39,2.39,0,0,1,89.47,85c-.22.24-2.32-.84-3.39-1.82A6.59,6.59,0,0,1,85,82a6,6,0,0,0-2.21,2.88C81.43,89,80.45,94,77.76,97.51a34,34,0,0,1,4.17-.24,3.47,3.47,0,0,0,.59-.88A27,27,0,0,1,91,85.52a66.51,66.51,0,0,0,3.37-10.09,6.12,6.12,0,0,0,0-2c-.25-.87-.52-1.72-.79-2.55l-.6-.61a1.4,1.4,0,0,0-.09.29,1.4,1.4,0,0,1,.09-.29l-.62-.61h1.09a4.91,4.91,0,0,1,1.88-.85C98.92,65.76,105.89,66.19,106.47,63.2Z"/><path class="cls-6" d="M78.84,91a24.83,24.83,0,0,0-.79-11.67,6.64,6.64,0,0,0-1-1.13c-.3-.27-.58-.49-.6-.5-.67-.61-1.22-2-2.14-2.85l-.18-.14c.09.64.3,2.18.43,3.15a1,1,0,0,1,.07-.15,9.31,9.31,0,0,1,.73,3.73c-.49,4.72-2.15,9.87-5.26,13.29A11.31,11.31,0,0,1,59.87,98.5a50,50,0,0,1-6.32-2.22,4.78,4.78,0,0,0-.59.53c-.28.32-.6-.29-.9-1.13L51,95.23c3,3.9,7.16,7.13,11.84,8C71.22,104.9,77.39,98.54,78.84,91Z"/><path class="cls-1" d="M53.83,99.85a18.31,18.31,0,0,0,5.61,3.51c5.67,2.23,12,1.27,16.26-3.35.2-.23.4-.47.59-.72,3.85-5,5.15-14.91,1.86-19.79a.71.71,0,0,0-.1-.14A24.83,24.83,0,0,1,78.84,91c-1.45,7.51-7.62,13.87-16,12.24-4.68-.91-8.84-4.14-11.84-8l-.19-.07A13,13,0,0,0,53.83,99.85Z"/><path class="cls-3" d="M46.47,108.4a11,11,0,0,1,7-2.3,49.72,49.72,0,0,0,29.67-7.86,30.28,30.28,0,0,0-4,.39l-2.9.66c-.19.25-.39.49-.59.72-4.22,4.62-10.59,5.58-16.26,3.35-6,1.53-10,2.58-12.88,3.11-.76.14-1.44.25-2.06.31.2.2.4.4.61.59A8.85,8.85,0,0,0,46.47,108.4Z"/><path class="cls-11" d="M52.33,109.79a.28.28,0,0,0,0,.09c5.48,1.51,10.47,4.58,15.71,4.06,3.35-.34,6.07-4.52,9.57-6.33,5.46-2.83,12.35-5.38,17.94-7.72,1.13-.48,2.2-.94,3.2-1.4,2.9-1.32,5.17-2.58,6.27-3.79a1.28,1.28,0,0,0,.25-.4c-12.28,1-18.63,10.68-36.52,14C65.47,108.89,52.78,107.43,52.33,109.79Z"/><path class="cls-7" d="M48.72,109.17l.77.1a22.62,22.62,0,0,1,2.83.61.28.28,0,0,1,0-.09c.45-2.36,13.14-.9,16.41-1.54,17.89-3.27,24.24-13,36.52-14a1.51,1.51,0,0,0,.07-.53c-1.22-1.07-2.14-2.33-5-2.89-3.43-.66-6.63.81-10.32,3.06a32,32,0,0,1-1.34,3.3c-.65.72-3,.86-5.45,1a49.72,49.72,0,0,1-29.67,7.86,11,11,0,0,0-7,2.3A5,5,0,0,0,48.72,109.17Z"/><path class="cls-3" d="M91.17,90.49c-.42,1.28-.83,2.46-1.2,3.45,3.69-2.25,6.89-3.72,10.32-3.06,2.9.56,3.82,1.82,5,2.89-.07-1.84-3-5-5.41-9.27C94.23,83.57,93.35,86.48,91.17,90.49Z"/><path class="cls-5" d="M92.44,86.19c1.57-2.64,3.92-6.09,5.54-6-.15-.42-.29-.85-.41-1.28-1.23-.21-2.37-.43-3.34-.62a3.25,3.25,0,0,0-.4,1A53.18,53.18,0,0,1,92.44,86.19Z"/><path class="cls-4" d="M92.44,86.19c-.4,1.51-.84,3-1.27,4.3,2.18-4,3.06-6.92,8.75-6A27,27,0,0,1,98,80.22C96.36,80.1,94,83.55,92.44,86.19Z"/><path class="cls-5" d="M95.54,99.89a43.93,43.93,0,0,0-.57,12,14.16,14.16,0,0,1,.24-2.85c1.12-5.77,6-8.08,11.78-8.74-2.73-.72-5.5-1.25-8.25-1.86C97.74,99,96.67,99.41,95.54,99.89Z"/><path class="cls-3" d="M97.67,110.79a12.09,12.09,0,0,0-.17,1.54c1.65-.41,3.49-.81,5.57-1.16a10.26,10.26,0,0,0,6.12-3.26,15.91,15.91,0,0,0,2.62-4.17C105.48,103.57,98.85,104.71,97.67,110.79Z"/><path class="cls-4" d="M95,111.94c0,.37.07.72.11,1,.75-.22,1.56-.44,2.42-.65a12.09,12.09,0,0,1,.17-1.54c1.18-6.08,7.81-7.22,14.14-7.05.24-.51.45-1,.66-1.55a40.08,40.08,0,0,0-5.48-1.84c-5.78.66-10.66,3-11.78,8.74A14.16,14.16,0,0,0,95,111.94Z"/><path class="cls-3" d="M68.57,115.14A61.89,61.89,0,0,0,55.39,115c.87.93,1.71,1.89,2.5,2.91a29.84,29.84,0,0,1,2.2,3.25.36.36,0,0,0,.07.1c.16.14.47,0,.56-.13a24,24,0,0,1,12.42-6,55.16,55.16,0,0,1,16.8-.33,55.86,55.86,0,0,1,5.54.93s-.21-1-.4-2.68c-.1-.85-.19-1.87-.24-3a13.94,13.94,0,0,0-4.26-1.59C79.27,106.17,72.6,115.92,68.57,115.14Z"/><path class="cls-5" d="M94.9,104.91a38.76,38.76,0,0,1,.64-5c-5.59,2.34-12.48,4.89-17.94,7.72a12.91,12.91,0,0,0-1.45.9c5.57-2.53,12.07-5.46,16.23-4.65A6.48,6.48,0,0,1,94.9,104.91Z"/><path class="cls-4" d="M55.39,115a61.89,61.89,0,0,1,13.18.16c4,.78,10.7-9,22-6.78A13.94,13.94,0,0,1,94.84,110a45.48,45.48,0,0,1,.06-5,6.48,6.48,0,0,0-2.52-1c-4.16-.81-10.66,2.12-16.23,4.65-2.84,2-5.25,5.14-8.12,5.43-4.25.42-8.34-1.52-12.66-3.08a21.09,21.09,0,0,0-4.13,0C52.66,112.22,54.06,113.56,55.39,115Z"/><path class="cls-5" d="M55.37,110.86a30.93,30.93,0,0,0-5.88-1.59l1.75,1.62A21.09,21.09,0,0,1,55.37,110.86Z"/><path class="cls-5" d="M49.85,94.77l.92.39,1.29.52a18.71,18.71,0,0,0-1.13-3.05c-.6-.63-1.17-1.28-1.7-2a30,30,0,0,1-2.68-4.07,20.56,20.56,0,0,1-1.12,2.79A11.25,11.25,0,0,1,49.85,94.77Z"/><path class="cls-4" d="M49.85,94.77a11.25,11.25,0,0,0-4.42-5.38,14.21,14.21,0,0,1-1.68,2.68C44.47,92.48,47,93.59,49.85,94.77Z"/><path class="cls-9" d="M32.53,97.47c1.76,2.57,3.23,5.1,5.47,7.14a7.05,7.05,0,0,0,6.5,2.17c.62-.06,1.3-.17,2.06-.31,1.8-.33,4.08-.88,7-1.63a18.85,18.85,0,0,0-12-7.57A21.57,21.57,0,0,0,32.53,97.47Z"/><path class="cls-3" d="M57.79,103.77l1.65-.41a18.39,18.39,0,0,1-3.29-1.71A19,19,0,0,1,57.79,103.77Z"/><path class="cls-6" d="M40,94c-2.44.75-5.18,1-7.75,2.16l-.52.18c.27.37.52.73.77,1.1a21.57,21.57,0,0,1,9.08-.2,18.85,18.85,0,0,1,12,7.57l4.19-1.07a19,19,0,0,0-1.64-2.12,18.75,18.75,0,0,1-2.32-1.8,10.17,10.17,0,0,1-1.29-1.42,25.15,25.15,0,0,0-9.63-4C42,94.25,41,94.12,40,94Z"/><path class="cls-3" d="M42.91,94.43a25.15,25.15,0,0,1,9.63,4,19.91,19.91,0,0,1-1.77-3.27c-3.25-1.34-6.28-2.67-7-3.1A9.61,9.61,0,0,1,40,94C41,94.12,42,94.25,42.91,94.43Z"/><path class="cls-1" d="M35,99.62a11.79,11.79,0,0,0,7.35,5.56c2.83.55,5.37-.8,5.46-1.28a1.7,1.7,0,0,0-.43-1.71c-2.36-1.1-5.07-2.8-7.73-3.32A6.13,6.13,0,0,0,35,99.62Z"/><path class="cls-9" d="M61.26,111.66a9.41,9.41,0,0,0,2.16.7c5.11,1,7.88-2.9,6.61-3.14-3.17-.62-11.85-.21-12,.55a.6.6,0,0,0,0,.23C58.7,111.17,60.15,111.3,61.26,111.66Z"/><path class="cls-7" d="M91.85,113.13c-8.18-1.14-11.23,0-11-1.31.08-.37,4.06-3.18,8.17-2.38a7.53,7.53,0,0,1,1.86.62C91.76,110.61,91.88,112,91.85,113.13Z"/><path class="cls-7" d="M39.63,85.28c.17.15.41.29.58.45s.3.39.12.6-.84.36-1.15.7a.89.89,0,0,0-.2.82c.45-.57,1.39-.74,1.48-1.22a13,13,0,0,1,.2-3,9.5,9.5,0,0,1,7.88-7.85c1.36-.23,1.84-1.44,2.55-2.62.22.33.22.74,1.37,1,.62.11,2.55-.73,3.86-.8a24.15,24.15,0,0,0,3.93-.22c-1-.34-1.94-1.21-2.84-.75-2.75,1.67-6.29-.88-7.19.1-.44.48-.25,1.61-.62,2,0,0-6.55,1.22-8.71,3.6l-.12.14C39.48,79.92,39.42,85.09,39.63,85.28Z"/><path class="cls-1" d="M52.46,74.13c-1.15-.23-1.15-.64-1.37-1-.71,1.18-1.19,2.39-2.55,2.62a9.5,9.5,0,0,0-7.88,7.85,13,13,0,0,0-.2,3c-.09.48-1,.65-1.48,1.22.05.26.14.52.21.8a2.17,2.17,0,0,0,1.25-.6,24.21,24.21,0,0,1,3.92-6.49l.15-.17A21.19,21.19,0,0,1,52,76.12c8.47-3.58,17.77-1.72,19.75-2.67l.11.12,1.35-.27-2.09-.72h0c-3.35.15-6.71.57-10.08.66a1.87,1.87,0,0,1-.77-.13,24.15,24.15,0,0,1-3.93.22C55,73.4,53.08,74.24,52.46,74.13Z"/><path class="cls-1" d="M71.31,83.21c-.59.86-1.88,1.36-2.6,2.3-.68.73-.88,1.77-1.93,2.21-2.91,1.12-5,4.82-10.8,3.69-3.25-.63-6.37-3.89-7.88-6.17,0,.13,0,.26,0,.39s0,.23,0,.34a26.79,26.79,0,0,0,3,3.88,5.46,5.46,0,0,0,2.39,1.31c4.72,1,.19,2.74,10.76-.76.5-.19.81-.88,1.39-1.17A10.24,10.24,0,0,0,67.89,88a11.44,11.44,0,0,0,2-1.71C72,84,73.26,80.84,74.59,77.89c-.13-1-.34-2.51-.43-3.15a.94.94,0,0,0-.18-.12,2.43,2.43,0,0,1-.14.2A6.83,6.83,0,0,1,74,77.28,32.94,32.94,0,0,1,71.31,83.21Z"/><path class="cls-1" d="M59.6,94.74C57.27,94.5,55,93.85,53.42,96c-.57-1-.58-2.59-1.35-3.06a10.72,10.72,0,0,1-3.33-3.42c.15.37.32.74.49,1.13.53.68,1.1,1.33,1.7,2a18.71,18.71,0,0,1,1.13,3.05c.3.84.62,1.45.9,1.13a4.78,4.78,0,0,1,.59-.53c2.49-1.85,6.27-.27,7.29-1.39.33-.36.51-.89.81-1.22a11.9,11.9,0,0,0,4.25-2.74,12.14,12.14,0,0,0,1.36-1.82c-1.73,1.09-3.47,2.16-5.35,3.17C60.81,92.93,60.76,94.86,59.6,94.74Z"/><path class="cls-7" d="M52.07,93c.77.47.78,2.09,1.35,3.06,1.61-2.17,3.85-1.52,6.18-1.28,1.16.12,1.21-1.81,2.31-2.46,1.88-1,3.62-2.08,5.35-3.17q.33-.52.63-1.08a10.24,10.24,0,0,1-2.33,1.2c-.58.29-.89,1-1.39,1.17-10.57,3.5-6,1.77-10.76.76A5.46,5.46,0,0,1,51,89.85a26.79,26.79,0,0,1-3-3.88c0-.11,0-.23,0-.34a7.54,7.54,0,0,0,.67,3.91A10.72,10.72,0,0,0,52.07,93Z"/><path class="cls-1" d="M48.74,89.54a7.54,7.54,0,0,1-.67-3.91,14.63,14.63,0,0,1,1.36-5.27c0-.11.1-.22.16-.33A21.29,21.29,0,0,1,52,76.12a23.87,23.87,0,0,0-2.58,1.29,13.43,13.43,0,0,0-1.93,4.68A10.54,10.54,0,0,0,48.74,89.54Z"/><path class="cls-3" d="M45.56,84.64l0,.08a30.46,30.46,0,0,0,3.64,6c-.17-.39-.34-.76-.49-1.13a10.54,10.54,0,0,1-1.23-7.45,13.43,13.43,0,0,1,1.93-4.68,21.6,21.6,0,0,0-3,2.14A9,9,0,0,0,45.51,82,6.17,6.17,0,0,0,45.56,84.64Z"/><path class="cls-5" d="M44.36,81.56a24.51,24.51,0,0,0,1.2,3.08A6.17,6.17,0,0,1,45.51,82a9,9,0,0,1,.91-2.46,20.6,20.6,0,0,0-1.91,1.84Z"/><path class="cls-4" d="M58,89.46a4.47,4.47,0,0,0,2.89-.75c.66-.27,1,.63,1.32-1.21.15-.77.18-1.55.32-2.3A4.61,4.61,0,0,1,63,84c-.49-.29-.91-.42-1.35-.67a4.64,4.64,0,0,1-.77,1.27c-.17.19-.55.16-1,0a3.07,3.07,0,0,1-.33.45,3.4,3.4,0,0,1-1.7.56,6.37,6.37,0,0,1-.91,1.4,2.93,2.93,0,0,1-.69.56C56.71,88.43,57,89.26,58,89.46Z"/><path class="cls-1" d="M56.44,89.46c.54.5,1.47.73,1.77.4a.23.23,0,0,0,.06-.12c1.31.71,2.31.32,3.28-.75a.65.65,0,0,0,.81-.13c.68-.75.77-2.57,1.1-4.52A5.34,5.34,0,0,0,63,84a4.61,4.61,0,0,0-.39,1.19c-.14.75-.17,1.53-.32,2.3-.36,1.84-.66.94-1.32,1.21a4.47,4.47,0,0,1-2.89.75c-1-.2-1.33-1-1.78-1.85a2.36,2.36,0,0,1-.68.29A3.23,3.23,0,0,0,56.44,89.46Z"/><path class="cls-1" d="M57.2,86.18a1.85,1.85,0,0,1-1.77,1c-1-.18-2.6-3.87-2.94-4.68a5.83,5.83,0,0,1-3,.69,1.58,1.58,0,0,1-.59-.23c-.3.44-.53,1-.25,1.21.64.59,2.47-1.05,3.86-1.56h0c.31,1.17.68,2.49,1,3.51a6,6,0,0,0,.71,1.65,1.49,1.49,0,0,0,1.32.15A2.85,2.85,0,0,0,57,87.05a6.37,6.37,0,0,0,.91-1.4,3.4,3.4,0,0,0,1.7-.56,3.07,3.07,0,0,0,.33-.45,4.49,4.49,0,0,1-.67-.31C58.55,84.81,57.66,85.12,57.2,86.18Z"/><path class="cls-5" d="M55.68,83.55a3.12,3.12,0,0,0,2.3-.76,4,4,0,0,1-.07-2l-.29-.18-.2-.12c-.52-.31-1,.9-1.49.75a6.47,6.47,0,0,0-3.11-.49C53.61,82.08,54.55,83.33,55.68,83.55Z"/><path class="cls-4" d="M49.5,83.17a5.83,5.83,0,0,0,3-.69c.34.81,2,4.5,2.94,4.68a1.85,1.85,0,0,0,1.77-1c.46-1.06,1.35-1.37,2-1.85a3,3,0,0,1-.49-.34l-.07-.08a2.57,2.57,0,0,1-.34-.4,3,3,0,0,1-.34-.72,3.12,3.12,0,0,1-2.3.76c-1.13-.22-2.07-1.47-2.86-2.77a6.09,6.09,0,0,0-.73.1H52a5.24,5.24,0,0,0-2.51,1.31l-.21.22a5.26,5.26,0,0,0-.41.52A1.58,1.58,0,0,0,49.5,83.17Z"/><path class="cls-3" d="M60.19,83.55c-.52-.1-1.37-.66-1.59-2.28l-.69-.45a3.54,3.54,0,0,0,.41,2.69,2.57,2.57,0,0,0,.34.4l.07.08a3.66,3.66,0,0,0,1.16.65c.4.13.78.16,1,0a4.64,4.64,0,0,0,.77-1.27l0-.07-.33-.2A1.11,1.11,0,0,1,60.19,83.55Z"/><path class="cls-5" d="M60.19,83.55a1.11,1.11,0,0,0,1.12-.48l-.43-.26c-.77-.49-1.53-1-2.28-1.54C58.82,82.89,59.67,83.45,60.19,83.55Z"/><path class="cls-7" d="M61.26,77c-3.44-.66-7.54,1.15-10.06,3.82a17.57,17.57,0,0,1,4.3-.39c.57,0,1.31-1,2-.82a31.23,31.23,0,0,0,5.69,3.72,5,5,0,0,1,2.08,1.92c0-.18,0-.35,0-.47v-.19h0V84.5h0a16.68,16.68,0,0,1,1.16-3A7.5,7.5,0,0,0,61.26,77Z"/><path class="cls-17" d="M52,80.89h.05a6.46,6.46,0,0,1,3.84.39c.51.15,1-1.06,1.49-.75l.2.12.29.18c1,.62,2,1.34,3,2,.25.16.51.32.76.46l0,.07a13.42,13.42,0,0,1,1.85,1,5.66,5.66,0,0,1,.5.41,5.13,5.13,0,0,1,1.22,1.63.15.15,0,0,0,.13-.06,3.68,3.68,0,0,0,0-1.09,5,5,0,0,0-2.08-1.92,31.23,31.23,0,0,1-5.69-3.72c-.73-.14-1.47.82-2,.82a17.57,17.57,0,0,0-4.3.39c-.18.19-.35.38-.51.58A5.73,5.73,0,0,1,52,80.89Z"/><path class="cls-17" d="M50.69,81.38c.16-.2.33-.39.51-.58a4.42,4.42,0,0,0-1.78.81c0,.2.08.39.11.59A5.19,5.19,0,0,1,50.69,81.38Z"/><path class="cls-3" d="M49.42,81.61a4.42,4.42,0,0,1,1.78-.81c2.52-2.67,6.62-4.48,10.06-3.82a7.5,7.5,0,0,1,5.19,4.5c1-2.08,2-4.15,1.11-7-1,.19-2,.37-3.1.52A20.62,20.62,0,0,0,49.59,80c-.06.11-.11.22-.16.33A3.1,3.1,0,0,0,49.42,81.61Z"/><path class="cls-4" d="M48.1,85.24c1.51,2.28,4.63,5.54,7.88,6.17,5.85,1.13,7.89-2.57,10.8-3.69,1-.44,1.25-1.48,1.93-2.21.72-.94,2-1.44,2.6-2.3A32.94,32.94,0,0,0,74,77.28a6.83,6.83,0,0,0-.18-2.46,56.55,56.55,0,0,1-4.85,6c-1.14,1.25-2.3,2.46-3.46,3.68a3.07,3.07,0,0,0-.25.26c0,.12,0,.29,0,.47a3.68,3.68,0,0,1,0,1.09.15.15,0,0,1-.13.06A5.13,5.13,0,0,0,64,84.75a5.66,5.66,0,0,0-.5-.41c-.33,2-.42,3.77-1.1,4.52a.65.65,0,0,1-.81.13c-1,1.07-2,1.46-3.28.75a.23.23,0,0,1-.06.12c-.3.33-1.23.1-1.77-.4a3.23,3.23,0,0,1-.86-1.56,1.49,1.49,0,0,1-1.32-.15,6,6,0,0,1-.71-1.65c-.34-1-.71-2.34-1-3.51h0c-1.39.51-3.22,2.15-3.86,1.56-.41-.37.28-1.32.66-1.73l.21-.22c0-.2-.07-.39-.11-.59a3.74,3.74,0,0,0-1.05,1.87A13.64,13.64,0,0,0,48.1,85.24Z"/><path class="cls-5" d="M49.42,81.61a3.1,3.1,0,0,1,0-1.25,16.65,16.65,0,0,0-1.06,3.12A3.74,3.74,0,0,1,49.42,81.61Z"/><path class="cls-7" d="M57.33,96.2a10.67,10.67,0,0,1-2-.71,4.62,4.62,0,0,0-1.79.79,50,50,0,0,0,6.32,2.22,11.31,11.31,0,0,0,10.26-3.74c3.11-3.42,4.77-8.57,5.26-13.29a9.31,9.31,0,0,0-.73-3.73,1,1,0,0,0-.07.15c-.37.81-.73,1.64-1.11,2.46-.06.41-.12.81-.2,1.22C71.11,92.76,62.41,97.19,57.33,96.2Z"/><path class="cls-4" d="M57.33,96.2c5.08,1,13.78-3.44,16-14.63.08-.41.14-.81.2-1.22a22.84,22.84,0,0,1-3.64,6,11.44,11.44,0,0,1-2,1.71,14.33,14.33,0,0,1-2,2.9,11.9,11.9,0,0,1-4.25,2.74c-.3.33-.48.86-.81,1.22-.8.88-3.27.11-5.5.6A10.67,10.67,0,0,0,57.33,96.2Z"/><path class="cls-3" d="M22.34,99a18,18,0,0,0-2-.27c1.95,6,2.05,8.52,6.85,12.91,3.1,2.82,12.84,8.24,16.16,8.75a17.31,17.31,0,0,0,5.84-.08C45.86,109.51,33.5,101.11,22.34,99Z"/><path class="cls-5" d="M53.77,119.13c1.37-.41,2.73-.85,4.12-1.24a72.82,72.82,0,0,0-8.4-8.62l-.77-.1a5.14,5.14,0,0,1-2.22-.75A80.57,80.57,0,0,1,53.77,119.13Z"/><path class="cls-4" d="M18.83,94.42c.63,1.6,1.12,3,1.53,4.26a18,18,0,0,1,2,.27c11.16,2.16,23.52,10.56,26.87,21.31a40.47,40.47,0,0,0,4.56-1.13,80.57,80.57,0,0,0-7.27-10.71,8.6,8.6,0,0,1-1.39-1c-.21-.19-.41-.39-.61-.59a7.05,7.05,0,0,1-6.5-2.17,23.44,23.44,0,0,1-3.57-4.32,20.19,20.19,0,0,1-4.18-1.57,80.7,80.7,0,0,0-9.8-4A10.72,10.72,0,0,1,18.83,94.42Z"/><path class="cls-5" d="M34.43,100.29c-.87-1.27-1.71-2.6-2.67-3.92-2.6.79-3.87-.55-5.61-1.15a32.7,32.7,0,0,0-5.7-.55,80.7,80.7,0,0,1,9.8,4A20.19,20.19,0,0,0,34.43,100.29Z"/><path class="cls-7" d="M31,112.19a19.42,19.42,0,0,0,8.61,4.61c3.3.64,3.37,0,3.49-.61s-7.19-12-15.37-13.56c-3.08-.6-3.39-.24-3.59.76a1.28,1.28,0,0,0,.06.75A21.09,21.09,0,0,0,31,112.19Z"/><path class="cls-18" d="M43.67,9.46c-7.08,0-18,.87-23.45,5.36-.66.53-1.48,1.2-2.4,2,.78.24,1.56.44,2.35.6C28.59,19,37.5,15.66,43.67,9.46Z"/><path class="cls-9" d="M2.34,41.25c5.33-4.56,9.37-11,12.42-18.15,2.15-3.84,5.8-3.28,10.1-2.45,1,.19,1.94.4,2.91.58,10.85,2.11,18.45-3.78,19.32-8.29a5.59,5.59,0,0,0-.4-3.44c-.89,0-1.91,0-3,0C37.5,15.66,28.59,19,20.17,17.4c-.79-.16-1.57-.36-2.35-.6-5.37,4.57-14.17,13-15.29,18.74A19.4,19.4,0,0,0,2.34,41.25Z"/><path class="cls-18" d="M4.62,36.67a22.8,22.8,0,0,0,6.5-10.83c-4,1.5-6.5,6.42-7.3,10.53,0,.14.1.2.28.23S4.48,36.64,4.62,36.67Z"/><path class="cls-1" d="M9.75,72.91a16.48,16.48,0,0,0,1.59-4.53c.93-4.82-.6-9.87-1.62-10.07-.63-.12-1.42.68-1.54,1.27s-.51,16.69.5,16.88c.54.1.58-.14.67-.58.15-.8.12-1.68.28-2.48A3.89,3.89,0,0,1,9.75,72.91Z"/><path class="cls-1" d="M14.42,82a1.44,1.44,0,0,1,.42,0c1.74.34,3.13,4.06,5.61,4.54,1,.2,2.33-.17,2.45-.75a.37.37,0,0,0-.12-.34c-2.52-3.41-7-4.54-10.93-6A14.41,14.41,0,0,1,14.42,82Z"/><path class="cls-9" d="M89.09,7.25a14.31,14.31,0,0,1,3.15.26c5.26,1,7.29,4.12,8.73,4.4.54.11.91,0,1-.55.62-3.24-.75-7-4.83-7.82C93.31,2.8,89,5.09,88.75,6.16A1.17,1.17,0,0,0,89.09,7.25Z"/><path class="cls-1" d="M63.74,12.26c3.81,4.33,14.55,8.37,15,8.46s2-.19,2.17-1.27c.81-4.21-15.1-8.73-16.78-9.23Z"/><path class="cls-1" d="M94.8,35.64c-.83-2.27-1.45-4.51-3.46-6.17a1.06,1.06,0,0,0-.48-.22c-.74-.15-1,.57-1.1,1.34-.12.59,1.94,5.88,5.55,7.91,0,0,0,0,.06,0s.28-.27.34-.58a.93.93,0,0,0,0-.44A11.39,11.39,0,0,0,94.8,35.64Z"/><path class="cls-1" d="M34.2,44.51c18.59-9.55-2.62-6.06-3.71-.46a1.05,1.05,0,0,0,.88,1.33,1.53,1.53,0,0,0,.64,0A7.7,7.7,0,0,0,34.2,44.51Z"/><path class="cls-1" d="M23.61,69.82a46.41,46.41,0,0,0,1-7,0,0,0,0,0,0-.05c-.89-.17-3.64,2.48-4.06,4.66-.19,1,.05,2.41,1.1,2.61A4.21,4.21,0,0,0,23.61,69.82Z"/><path class="cls-1" d="M24.7,61.06c2.12-2.2,4.86-4.4,5.43-7.37,0-.08.17-1.87.53-3.7.71-3.66.86-3.13.12-3.28-2.54,1.72-2.93,8.29-5.69,12.36a4.4,4.4,0,0,0-.75,1.54,2.33,2.33,0,0,0,0,.37Z"/></g></g></g></svg>